<svg
      xmlns="http://www.w3.org/2000/svg"
      width="24"
      height="24"
      version="1.1"
      viewBox="134.5 1176 24 24"
			stroke-width="0"
    >
      <g>
        <path
          d="M155.5 1188a8.972 8.972 0 01-2.634 6.362l1.415 1.413A10.966 10.966 0 00157.5 1188c0-6.075-4.925-11-11-11s-11 4.925-11 11c0 3.036 1.23 5.785 3.219 7.775l1.415-1.413A9 9 0 11155.5 1188z"
        ></path>
        <path
          d="M153.5 1188a6.978 6.978 0 01-2.048 4.948l-1.415-1.414a5 5 0 10-7.074 0l-1.415 1.414A7 7 0 11153.5 1188z"
        ></path>
        <path
          fillRule="evenodd"
          d="M149.5 1188a3 3 0 11-6 0 3 3 0 016 0zm-2 0a1 1 0 11-2 0 1 1 0 012 0z"
          clipRule="evenodd"
        ></path>
      </g>
    </svg>