<svg width="40" height="40" viewBox="0 0 40 40" fill="none" xmlns="http://www.w3.org/2000/svg">
<g clip-path="url(#clip0)">
<path d="M18.5161 17.0436C16.5194 17.6909 14.7358 18.6027 13.1653 19.7793L14.4575 23.7656C14.6533 24.3695 14.5534 24.8469 14.1579 25.1976C13.1249 26.1998 12.2851 27.3397 11.6384 28.6173C11.4864 28.9336 11.2375 29.1477 10.892 29.2597C10.5464 29.3717 10.2192 29.3443 9.91055 29.1774L5.82028 26.9658C5.51158 26.7989 5.2985 26.5342 5.18103 26.1719C5.06356 25.8095 5.08086 25.4701 5.23293 25.1539C7.95947 19.8204 12.1065 16.2513 17.6742 14.4465C23.2419 12.6417 28.6941 13.0991 34.0311 15.8188C34.3398 15.9857 34.5529 16.2503 34.6704 16.6127C34.7879 16.9751 34.7706 17.3145 34.6185 17.6307L32.6035 21.8213C32.4515 22.1376 32.2026 22.3518 31.8571 22.4638C31.5115 22.5758 31.1843 22.5484 30.8756 22.3814C29.6024 21.7262 28.2536 21.2958 26.8291 21.0901C26.3031 21.0382 25.9487 20.7303 25.7659 20.1666L24.4738 16.1803C22.3451 16.1584 20.3592 16.4462 18.5161 17.0436Z" fill="currentColor" />
</g>
<defs>
<clipPath id="clip0">
<rect width="31" height="12" fill="white" transform="translate(2.92952 19.2261) rotate(-17.9604)"/>
</clipPath>
</defs>
</svg>