<svg width="169" height="169" viewBox="0 0 169 169" fill="none" xmlns="http://www.w3.org/2000/svg">
<path d="M137.409 107.283C129.516 127.283 109.699 140.528 86.4979 140.528C66.4968 140.528 44.2551 127.7 36.3629 107.7L36.086 107.014C33.5819 100.74 33.986 93.0619 33.986 85.8829L42.0302 14.8687L64.4681 36.9815C70.8795 34.2443 77.9311 32.7282 85.3312 32.7282H87.6643C95.0644 32.7282 102.116 34.2443 108.527 36.9815L133.159 12.675L141.325 86.9898C141.325 94.1689 139.947 101.023 137.441 107.296" fill="#F4AA41"/>
<path d="M86.498 140.528C109.771 141.28 131.15 127.357 139.042 107.357L139.285 106.85C141.789 100.577 141.387 91.7211 141.387 84.5421L133.159 12.675" fill="#E27022"/>
<path d="M143.65 119.818L123.116 108.41" stroke="#0E0E0E" stroke-width="3" stroke-miterlimit="10" stroke-linecap="round" stroke-linejoin="round"/>
<path d="M134.524 131.225L113.991 119.818" stroke="#0E0E0E" stroke-width="3" stroke-miterlimit="10" stroke-linecap="round" stroke-linejoin="round"/>
<path d="M36.7943 106.374C34.3434 100.307 32.9956 93.6783 32.9956 86.7358L40.9808 14.8687L65.0679 38.3745C71.3376 35.7275 78.2332 34.2614 85.47 34.2614H87.7515C94.9882 34.2614 101.884 35.7275 108.154 38.3745L132.241 14.8689L140.226 86.736C140.226 93.6786 138.878 100.307 136.427 106.374" stroke="#0E0E0E" stroke-width="3" stroke-miterlimit="10" stroke-linecap="round" stroke-linejoin="round"/>
<path d="M57.7114 131.274C65.7658 136.305 75.2794 139.21 85.4726 139.21H87.7541C97.9473 139.21 107.465 136.305 115.515 131.274" stroke="#0E0E0E" stroke-width="3" stroke-miterlimit="10" stroke-linecap="round" stroke-linejoin="round"/>
<path d="M29.5752 119.818L50.1086 108.41" stroke="#0E0E0E" stroke-width="3" stroke-miterlimit="10" stroke-linecap="round" stroke-linejoin="round"/>
<path d="M38.7007 131.225L59.2341 119.818" stroke="#0E0E0E" stroke-width="3" stroke-miterlimit="10" stroke-linecap="round" stroke-linejoin="round"/>
<path d="M128.82 86.4049C121.975 77.2789 108.286 77.2789 103.723 86.4049" stroke="#0E0E0E" stroke-width="3" stroke-miterlimit="10" stroke-linecap="round" stroke-linejoin="round"/>
<path d="M44.4038 86.4049C51.2483 77.2789 64.9373 77.2789 69.5002 86.4049" stroke="#0E0E0E" stroke-width="3" stroke-miterlimit="10" stroke-linecap="round" stroke-linejoin="round"/>
<path d="M85.8389 105.61C85.8389 105.61 109.851 112.901 85.8389 118.303C85.8389 118.303 109.698 125.121 85.8389 129.511" stroke="#0E0E0E" stroke-width="3" stroke-miterlimit="10" stroke-linecap="round" stroke-linejoin="round"/>
<path d="M96.4708 105.156C98.7676 105.156 97.4096 103.278 98.1138 101.87C98.818 103.278 98.818 100.461 98.1138 101.87C96.7055 99.0529 95.2971 99.2876 95.2971 99.2876C96.2947 97.1751 88.7248 100.93 91.0721 97.1749C91.0721 97.1749 85.6734 92.7152 86.6123 95.2972C87.0817 93.1847 80.2752 97.1751 76.0498 97.1751C71.1206 104.451 70.1817 103.513 67.5998 111.963C67.5998 101.635 69.0081 105.86 68.0692 103.513C66.8956 100.226 70.4164 109.583 68.0692 110.522C65.9567 111.461 65.2527 118.3 65.2524 124.638C65.9566 131.679 63.8442 130.036 65.2526 133.088C68.5387 139.66 64.0791 139.425 64.0791 139.425L60.793 153.274L83.7958 154.917C84.0305 151.631 83.7957 148.345 84.7346 145.058C85.6735 141.538 88.7249 141.538 91.0721 137.782C96.7055 128.393 96.4708 123.229 99.2874 115.718C99.5221 114.779 99.9916 114.075 100.461 113.136C101.4 111.258 101.635 108.911 100.696 107.033C99.2874 105.86 98.5833 103.982 96.4708 105.156Z" fill="#E27022"/>
<path d="M61.9517 154.575C63.36 147.533 64.5336 142.369 65.0031 140.257C64.0642 138.379 65.0031 105.987 67.6002 105.987C76.0503 86.9748 100.446 99.2875 100.681 108.1C101.62 110.212 101.62 112.56 100.446 114.672L98.3336 118.662C97.6294 120.775 97.16 122.887 96.6905 124.765C95.7517 129.929 93.8739 134.858 91.2919 139.553C90.3531 141.196 89.4142 142.604 88.0058 143.543C87.0669 144.482 86.3628 144.951 86.1281 145.89C85.6586 148.707 84.9544 152.462 84.7197 156.218" stroke="#0E0E0E" stroke-width="3" stroke-linecap="round" stroke-linejoin="round"/>
<path d="M78.8527 108.212C79.1146 108.998 79.9641 109.422 80.75 109.161C81.536 108.899 81.9607 108.049 81.6987 107.263L78.8527 108.212ZM85.1904 110.324C85.4523 111.11 86.3018 111.535 87.0877 111.273C87.8736 111.011 88.2984 110.162 88.0364 109.376L85.1904 110.324ZM81.3269 96.1143C79.6334 97.8078 76.9362 102.462 78.8527 108.212L81.6987 107.263C80.2352 102.873 82.325 99.3588 83.4482 98.2356L81.3269 96.1143ZM89.777 96.1143C88.9425 96.9488 87.3643 98.9976 86.2023 101.51C85.0522 103.996 84.1651 107.249 85.1904 110.324L88.0364 109.376C87.3716 107.381 87.8925 105.001 88.925 102.769C89.9455 100.563 91.3244 98.8095 91.8983 98.2356L89.777 96.1143Z" fill="#0E0E0E"/>
</svg>
