<svg width="40" height="40" viewBox="0 0 40 40" fill="none" xmlns="http://www.w3.org/2000/svg">
<circle cx="20" cy="20" r="19.5" fill="#525252" stroke="#0E0E0E"/>
<path d="M29.831 24.9487C28.2899 28.8541 24.4202 31.4404 19.8898 31.4404C15.9843 31.4404 11.6413 28.9355 10.1002 25.0301L10.0461 24.8962C9.55714 23.6712 9.63604 22.1718 9.63604 20.77L11.2068 6.90334L15.5882 11.2212C16.8401 10.6867 18.217 10.3907 19.662 10.3907H20.1176C21.5626 10.3907 22.9395 10.6867 24.1915 11.2212L29.0012 6.47498L30.5957 20.9862C30.5957 22.388 30.3266 23.7264 29.8372 24.9514" fill="#F4AA41"/>
<path d="M19.8901 31.4404C24.4346 31.5871 28.6091 28.8685 30.1502 24.9632L30.1977 24.8642C30.6867 23.6392 30.608 21.91 30.608 20.5082L29.0015 6.47498" fill="#E27022"/>
<path d="M31.0495 27.3963L27.04 25.1688" stroke="black" stroke-miterlimit="10" stroke-linecap="round" stroke-linejoin="round"/>
<path d="M29.2678 29.6237L25.2583 27.3962" stroke="black" stroke-miterlimit="10" stroke-linecap="round" stroke-linejoin="round"/>
<path d="M10.1846 24.7711C9.70606 23.5865 9.44287 22.2922 9.44287 20.9365L11.0021 6.90332L15.7055 11.4932C16.9298 10.9763 18.2763 10.6901 19.6893 10.6901H20.1348C21.5479 10.6901 22.8944 10.9763 24.1187 11.4932L28.8221 6.90336L30.3813 20.9366C30.3813 22.2922 30.1181 23.5865 29.6396 24.7712" stroke="black" stroke-miterlimit="10" stroke-linecap="round" stroke-linejoin="round"/>
<path d="M14.269 29.6334C15.8418 30.6158 17.6995 31.1831 19.6899 31.1831H20.1354C22.1258 31.1831 23.9843 30.6158 25.5562 29.6334" stroke="black" stroke-miterlimit="10" stroke-linecap="round" stroke-linejoin="round"/>
<path d="M8.7749 27.3963L12.7844 25.1688" stroke="black" stroke-miterlimit="10" stroke-linecap="round" stroke-linejoin="round"/>
<path d="M10.5566 29.6237L14.5661 27.3962" stroke="black" stroke-miterlimit="10" stroke-linecap="round" stroke-linejoin="round"/>
<path d="M28.1539 20.8719C26.8174 19.0899 24.1444 19.0899 23.2534 20.8719" stroke="black" stroke-miterlimit="10" stroke-linecap="round" stroke-linejoin="round"/>
<path d="M11.6704 20.8719C13.0069 19.0899 15.6799 19.0899 16.5709 20.8719" stroke="black" stroke-miterlimit="10" stroke-linecap="round" stroke-linejoin="round"/>
<path d="M19.7612 24.6221C19.7612 24.6221 24.45 26.0457 19.7612 27.1007C19.7612 27.1007 24.4201 28.4319 19.7612 29.2892" stroke="black" stroke-miterlimit="10" stroke-linecap="round" stroke-linejoin="round"/>
<path d="M21.8378 24.5334C22.2863 24.5334 22.0211 24.1667 22.1586 23.8917C22.2961 24.1667 22.2961 23.6167 22.1586 23.8917C21.8836 23.3417 21.6086 23.3876 21.6086 23.3876C21.8034 22.9751 20.3252 23.7084 20.7836 22.975C20.7836 22.975 19.7294 22.1042 19.9127 22.6084C20.0044 22.1959 18.6753 22.9751 17.8502 22.9751C16.8877 24.3959 16.7044 24.2126 16.2002 25.8626C16.2002 23.8459 16.4752 24.6709 16.2919 24.2126C16.0627 23.5709 16.7502 25.3979 16.2919 25.5812C15.8794 25.7646 15.7419 27.1001 15.7419 28.3376C15.8794 29.7126 15.4669 29.3917 15.7419 29.9876C16.3836 31.2709 15.5128 31.2251 15.5128 31.2251L14.8711 33.9292L19.3628 34.2501C19.4086 33.6084 19.3628 32.9667 19.5461 32.3251C19.7294 31.6376 20.3253 31.6376 20.7836 30.9042C21.8836 29.0709 21.8378 28.0626 22.3878 26.5959C22.4336 26.4126 22.5253 26.2751 22.6169 26.0917C22.8003 25.7251 22.8461 25.2667 22.6628 24.9001C22.3878 24.6709 22.2503 24.3042 21.8378 24.5334Z" fill="#E27022"/>
<path d="M15.0972 34.1832C15.3722 32.8082 15.6013 31.7999 15.693 31.3874C15.5097 31.0207 15.693 24.6957 16.2001 24.6957C17.8501 20.9832 22.6138 23.3874 22.6597 25.1082C22.843 25.5207 22.843 25.979 22.6138 26.3915L22.2013 27.1707C22.0638 27.5832 21.9722 27.9957 21.8805 28.3623C21.6972 29.3707 21.3305 30.3332 20.8263 31.2499C20.643 31.5707 20.4597 31.8457 20.1847 32.029C20.0013 32.2123 19.8638 32.304 19.818 32.4873C19.7263 33.0373 19.5888 33.7707 19.543 34.504" stroke="black" stroke-linecap="round" stroke-linejoin="round"/>
<path d="M18.2007 25.1956C18.288 25.4576 18.5712 25.5991 18.8332 25.5118C19.0951 25.4245 19.2367 25.1413 19.1494 24.8794L18.2007 25.1956ZM19.4382 25.6081C19.5256 25.8701 19.8087 26.0116 20.0707 25.9243C20.3327 25.837 20.4742 25.5538 20.3869 25.2919L19.4382 25.6081ZM18.7339 22.6214C18.3638 22.9915 17.7952 23.9791 18.2007 25.1956L19.1494 24.8794C18.8949 24.1158 19.261 23.5085 19.441 23.3285L18.7339 22.6214ZM20.3839 22.6214C20.203 22.8024 19.881 23.2228 19.6443 23.7344C19.4117 24.2374 19.2132 24.9329 19.4382 25.6081L20.3869 25.2919C20.282 24.9771 20.3584 24.5726 20.5519 24.1543C20.7414 23.7447 20.9969 23.4226 21.091 23.3285L20.3839 22.6214Z" fill="black"/>
</svg>
