<svg width="21" height="22" viewBox="0 0 21 22" fill="none" xmlns="http://www.w3.org/2000/svg">
<g clip-path="url(#clip0)">
<path d="M10.5 0.5C7.66499 0.5 5.20626 1.54124 3.12375 3.62375L9.53674e-07 0.5V8.375H7.875L5.01375 5.51375C6.57126 3.92124 8.39999 3.125 10.5 3.125C12.67 3.125 14.525 3.89499 16.065 5.435C17.605 6.97501 18.375 8.82999 18.375 11C18.375 13.17 17.605 15.025 16.065 16.565C14.525 18.105 12.67 18.875 10.5 18.875C8.32999 18.875 6.47501 18.105 4.935 16.565L3.045 18.455C5.07501 20.485 7.55999 21.5 10.5 21.5C13.3875 21.5 15.8594 20.4719 17.9156 18.4156C19.9719 16.3594 21 13.8875 21 11C21 8.11248 19.9719 5.64063 17.9156 3.58437C15.8594 1.52811 13.3875 0.5 10.5 0.5Z" fill="white"/>
</g>
<defs>
<clipPath id="clip0">
<rect width="21" height="21" fill="white" transform="matrix(-1 0 0 1 21 0.5)"/>
</clipPath>
</defs>
</svg>
