<svg width="30" height="30" viewBox="0 0 30 30" fill="none" xmlns="http://www.w3.org/2000/svg">
<path d="M26.5484 6.16526C26.5484 6.16526 25.3435 7.13694 23.6527 7.31185C23.6527 7.31185 20.9903 4.33845 17.1812 6.92318C15.471 8.12807 15.3156 10.674 15.6071 11.5873C15.6071 11.5873 10.4376 11.9955 5.92895 6.70942C5.92895 6.70942 3.90783 10.2075 7.25045 13.006C7.25045 13.006 6.26249 13.1615 5.32336 12.3842C5.32336 12.3842 4.87947 15.9989 8.92175 17.0095C8.92175 17.0095 8.64969 17.4759 7.01724 17.0095C7.01724 17.0095 7.2893 19.9634 11.1372 20.391C11.1372 20.391 9.05846 22.5287 4.38428 22.2566C4.38428 22.2566 12.109 28.048 20.4655 21.0517C25.1297 17.0872 24.9742 11.3736 24.8965 10.5185C24.8965 10.5185 26.7384 9.1193 27.2167 8.22532C27.2167 8.22532 25.7905 8.69174 24.6244 8.69174C24.6244 8.69174 26.1791 7.87542 26.5484 6.16526Z" fill="#5767DF"/>
<path d="M26.5484 6.16526C26.5484 6.16526 25.3435 7.13694 23.6527 7.31185C23.6527 7.31185 20.9903 4.33845 17.1812 6.92318C15.471 8.12807 15.3156 10.674 15.6071 11.5873C15.6071 11.5873 10.4377 11.9955 5.92895 6.70942C5.92895 6.70942 3.90783 10.2075 7.25045 13.006C7.25045 13.006 6.26249 13.1615 5.32336 12.3842C5.32336 12.3842 4.87947 15.9989 8.92175 17.0095C8.92175 17.0095 8.64969 17.4759 7.01724 17.0095C7.01724 17.0095 7.2893 19.9634 11.1372 20.391C11.1372 20.391 9.05846 22.5287 4.38428 22.2566C4.38428 22.2566 12.109 28.048 20.4655 21.0517C25.1297 17.0872 24.9742 11.3736 24.8965 10.5185C24.8965 10.5185 26.7384 9.1193 27.2167 8.22532C27.2167 8.22532 25.7905 8.69174 24.6244 8.69174C24.6244 8.69164 26.1791 7.87542 26.5484 6.16526Z" stroke="black" stroke-miterlimit="10" stroke-linecap="round" stroke-linejoin="round"/>
</svg>
