<svg width="60" height="60" viewBox="0 0 60 60" fill="none" xmlns="http://www.w3.org/2000/svg">
<path d="M17.8619 16.9631C16.995 15.4476 15.0636 14.9219 13.5481 15.7889C12.0326 16.6559 11.5069 18.5873 12.3739 20.1027C12.5129 20.3457 12.6835 20.5691 12.8813 20.7671L23.2063 34.2859L25.6131 37.319L18.5486 28.0693C17.6817 26.5538 15.7503 26.0281 14.2348 26.8951C12.7193 27.7621 12.1936 29.6935 13.0606 31.209C13.1996 31.4519 13.3702 31.6753 13.568 31.8734L20.6324 41.1229L26.2466 48.1949C31.1412 53.8112 39.2416 53.5046 44.8566 48.6112C48.0837 45.7745 50.1591 41.8533 50.6899 37.5896C51.0353 33.8001 51.4124 23.8906 51.4124 23.8906C51.2489 21.5621 48.6053 19.8408 48.2647 21.0433L43.8831 29.7793L40.8698 25.9989L43.8831 29.7793L40.8698 25.9989L28.8145 10.592C27.9476 9.07657 26.0162 8.55085 24.5007 9.41786C22.9852 10.2849 22.4595 12.2162 23.3265 13.7317C23.4654 13.9747 23.6361 14.1981 23.8339 14.396L27.6378 19.3767L33.3887 26.9688L21.3746 11.1398C20.5077 9.62431 18.5763 9.09859 17.0608 9.9656C15.5453 10.8326 15.0196 12.764 15.8865 14.2794C16.0255 14.5224 16.1961 14.7458 16.3939 14.9438L29.5294 31.9675" fill="#FFC938"/>
<path d="M17.8619 16.9631C16.995 15.4476 15.0636 14.9219 13.5481 15.7889C12.0326 16.6559 11.5069 18.5873 12.3739 20.1027C12.5129 20.3457 12.6835 20.5691 12.8813 20.7671L23.2063 34.2859L25.6131 37.319L18.5486 28.0693C17.6817 26.5538 15.7503 26.0281 14.2348 26.8951C12.7193 27.7621 12.1936 29.6935 13.0606 31.209C13.1996 31.4519 13.3702 31.6753 13.568 31.8734L20.6324 41.1229L26.2466 48.1949C31.1412 53.8112 39.2416 53.5046 44.8566 48.6112C48.0837 45.7745 50.1591 41.8533 50.6899 37.5896C51.0353 33.8001 51.4124 23.8906 51.4124 23.8906C51.2489 21.5621 48.6053 19.8408 48.2647 21.0433L43.8832 29.7793L40.8698 25.9989L28.8145 10.592C27.9476 9.07657 26.0162 8.55085 24.5007 9.41786C22.9852 10.2849 22.4595 12.2162 23.3265 13.7317C23.4654 13.9747 23.6361 14.1981 23.8339 14.396L27.6378 19.3767L33.3887 26.9688L21.3746 11.1398C20.5077 9.62431 18.5763 9.09859 17.0608 9.9656C15.5453 10.8326 15.0196 12.764 15.8865 14.2794C16.0255 14.5224 16.1961 14.7458 16.3939 14.9438L29.5294 31.9675" stroke="black" stroke-width="2" stroke-linecap="round" stroke-linejoin="round"/>
<path d="M11.6082 38.1201C11.6082 40.4177 13.1722 42.2768 15.1051 42.2768" stroke="black" stroke-width="2" stroke-miterlimit="10" stroke-linecap="round" stroke-linejoin="round"/>
<path d="M7.47974 37.7305C7.47974 42.7405 10.8903 46.7946 15.1051 46.7946" stroke="black" stroke-width="2" stroke-miterlimit="10" stroke-linecap="round" stroke-linejoin="round"/>
<path d="M41.6806 18.7505C41.6806 16.4528 40.1165 14.5938 38.1836 14.5938" stroke="black" stroke-width="2" stroke-miterlimit="10" stroke-linecap="round" stroke-linejoin="round"/>
<path d="M45.809 19.1403C45.809 14.1303 42.3984 10.0762 38.1836 10.0762" stroke="black" stroke-width="2" stroke-miterlimit="10" stroke-linecap="round" stroke-linejoin="round"/>
</svg>
