<?xml version="1.0" encoding="UTF-8"?>
<svg width="320px" height="237px" viewBox="0 0 320 237" version="1.1" xmlns="http://www.w3.org/2000/svg" xmlns:xlink="http://www.w3.org/1999/xlink">
    <title>BMBF-Logo</title>
    <g id="BMBF-Logo" stroke="none" stroke-width="1" fill="none" fill-rule="evenodd">
        <g id="Gefördert_vom_BMBF" transform="translate(43.000000, 42.000000)" fill-rule="nonzero">
            <g id="g10" transform="translate(110.000000, 76.500000) scale(-1, 1) rotate(-180.000000) translate(-110.000000, -76.500000) ">
                <g id="g12" transform="translate(0.000000, 0.722211)">
                    <path d="M76.162999,52.6273138 C76.162999,50.9729431 75.0711579,50.3235771 74.19988,50.3235771 C73.0492693,50.3235771 72.4939668,51.1308875 72.4939668,52.3318276 L72.4939668,59.2277355 L70.8691273,59.2277355 L70.8691273,51.6427117 C70.8691273,49.9491188 71.8198859,49.0821835 73.565805,49.0821835 C74.614808,49.0821835 75.5676907,49.5746605 76.1035213,50.4802903 L76.162999,50.4802903 L76.162999,49.2793502 L77.8874991,49.2793502 C77.8273133,49.9696973 77.7880155,50.6588132 77.7880155,51.3474014 L77.7880155,59.2277355 L76.162999,59.2277355 L76.162999,52.6273138" id="path14" fill="#231F20"></path>
                    <path d="M87.7811587,49.2793502 L87.7811587,56.173851 C87.7811587,58.1442863 87.245151,59.4234951 85.1044839,59.4234951 C83.8147378,59.4234951 83.0611762,59.0697912 82.4276322,57.9464161 L82.3495677,57.9464161 L82.3495677,59.2277355 L80.6236515,59.2277355 C80.6831293,58.5372126 80.7211879,57.8502073 80.7211879,57.1584531 L80.7211879,49.2793502 L82.3495677,49.2793502 L82.3495677,55.1707811 C82.3495677,56.5296656 82.6067735,58.1043605 84.3907512,58.1043605 C85.7778568,58.1043605 86.1547261,57.2374253 86.1547261,56.173851 L86.1547261,49.2793502 L87.7811587,49.2793502 L87.7811587,49.2793502" id="path16" fill="#231F20"></path>
                    <path d="M95.7702919,54.6575498 C95.7702919,52.6492993 95.7702919,50.4013181 93.9470163,50.4013181 C91.9051247,50.4013181 91.9051247,52.5703271 91.9051247,54.0665775 C91.9051247,56.7256011 92.1442747,58.1043605 93.8889547,58.1043605 C95.6908112,58.1043605 95.7702919,55.9766844 95.7702919,54.6575498 L95.7702919,54.6575498 Z M95.7702919,58.2246656 L95.7122303,58.2246656 C95.1556887,59.0099904 94.462844,59.4234951 93.5120854,59.4234951 C90.2794002,59.4234951 90.2006276,56.5688879 90.2006276,54.0852213 C90.2006276,49.7122022 91.825467,49.0821835 93.4324278,49.0821835 C94.4828469,49.0821835 95.1756916,49.5356141 95.7309941,50.4630536 L95.7702919,50.4630536 L95.7702919,49.2793502 L97.3960164,49.2793502 L97.3960164,63.5012039 L95.7702919,63.5012039 L95.7702919,58.2246656" id="path18" fill="#231F20"></path>
                    <polyline id="path20" fill="#231F20" points="106.059408 49.2793502 106.059408 55.7809248 111.056068 55.7809248 111.056068 57.3575545 106.059408 57.3575545 106.059408 61.9279161 111.332037 61.9279161 111.332037 63.5012039 104.234008 63.5012039 104.234008 49.2793502 106.059408 49.2793502 106.059408 49.2793502"></polyline>
                    <path d="M116.325157,50.4013181 C114.639247,50.4013181 114.222371,51.5637395 114.222371,54.7963228 C114.222371,57.5156747 115.073469,58.1043605 116.325157,58.1043605 C117.573127,58.1043605 118.426526,57.5156747 118.426526,54.7963228 C118.426526,51.5637395 118.010182,50.4013181 116.325157,50.4013181 Z M116.325157,49.0821835 C118.446529,49.0821835 120.130315,49.7122022 120.130315,54.1057998 C120.130315,57.0223184 119.79416,59.4234951 116.325157,59.4234951 C112.855269,59.4234951 112.517874,57.0223184 112.517874,54.1057998 C112.517874,49.7122022 114.202192,49.0821835 116.325157,49.0821835 L116.325157,49.0821835" id="path22" fill="#231F20"></path>
                    <path d="M124.295703,59.2277355 L122.670687,59.2277355 L122.670687,49.2793502 L124.295703,49.2793502 L124.295703,55.1487955 C124.295703,56.4899157 124.752053,57.8502073 126.553379,57.8502073 C126.850767,57.8502073 127.130808,57.7884718 127.42802,57.7492495 L127.42802,59.4234951 C125.841062,59.4234951 125.011383,59.248314 124.336417,57.7300781 L124.295703,57.7300781 L124.295703,59.2277355" id="path24" fill="#231F20"></path>
                    <path d="M135.546022,52.1167207 C135.546022,55.1487955 130.546529,55.1109803 130.546529,56.864374 C130.546529,57.7300781 131.224327,58.20268 132.095428,58.20268 C133.125844,58.20268 133.682386,57.65093 133.661675,56.6088137 L135.466364,56.6088137 C135.604791,58.5771384 134.079966,59.4234951 132.295989,59.4234951 C129.478231,59.4234951 128.842209,57.7492495 128.842209,56.7062538 C128.842209,53.7313415 133.841524,53.6922951 133.841524,51.9195541 C133.841524,50.893795 133.087786,50.4013181 132.112776,50.4013181 C130.470589,50.4013181 130.449878,51.7424383 130.449878,52.3126562 L128.606953,52.3126562 C128.54482,50.0282669 129.8967,49.0821835 132.057547,49.0821835 C134.038544,49.0821835 135.546022,49.9285403 135.546022,52.1167207 L135.546022,52.1167207" id="path26" fill="#231F20"></path>
                    <path d="M144.521317,56.0384199 C144.621508,58.2645914 143.449478,59.4234951 141.447593,59.4234951 C137.980006,59.4234951 137.641195,57.0223184 137.641195,54.1057998 C137.641195,49.7122022 139.328345,49.0821835 141.447593,49.0821835 C142.56103,49.0821835 144.663107,49.7911744 144.600797,52.5894986 L142.8963,52.5894986 C142.95507,50.796355 141.824462,50.4013181 141.447593,50.4013181 C139.763984,50.4013181 139.349056,51.5637395 139.349056,54.7963228 C139.349056,57.5156747 140.199623,58.1043605 141.447593,58.1043605 C142.063081,58.1043605 142.875589,57.6702773 142.837531,56.0384199 L144.521317,56.0384199 L144.521317,56.0384199" id="path28" fill="#231F20"></path>
                    <path d="M154.273894,49.2793502 L154.273894,56.3317954 C154.273894,58.5771384 153.323312,59.4234951 151.618638,59.4234951 C150.312252,59.4234951 149.55816,59.1095411 148.905144,57.9464161 L148.825663,57.9464161 L148.825663,63.5012039 L147.200647,63.5012039 L147.200647,49.2793502 L148.825663,49.2793502 L148.825663,55.1315588 C148.825663,56.8045733 149.241299,58.1043605 150.866316,58.1043605 C152.255899,58.1043605 152.648877,57.2374253 152.648877,56.0157308 L152.648877,49.2793502 L154.273894,49.2793502 L154.273894,49.2793502" id="path30" fill="#231F20"></path>
                    <path d="M162.485714,52.6273138 C162.485714,50.9729431 161.397059,50.3235771 160.522595,50.3235771 C159.370214,50.3235771 158.817921,51.1308875 158.817921,52.3318276 L158.817921,59.2277355 L157.192905,59.2277355 L157.192905,51.6427117 C157.192905,49.9491188 158.143486,49.0821835 159.888874,49.0821835 C160.940355,49.0821835 161.890937,49.5746605 162.427299,50.4802903 L162.485714,50.4802903 L162.485714,49.2793502 L164.21163,49.2793502 C164.147904,49.9696973 164.110731,50.6588132 164.110731,51.3474014 L164.110731,59.2277355 L162.485714,59.2277355 L162.485714,52.6273138" id="path32" fill="#231F20"></path>
                    <path d="M174.103343,49.2793502 L174.103343,56.173851 C174.103343,58.1442863 173.566981,59.4234951 171.426845,59.4234951 C170.139931,59.4234951 169.385839,59.0697912 168.750347,57.9464161 L168.67069,57.9464161 L168.67069,59.2277355 L166.948314,59.2277355 C167.004959,58.5372126 167.045673,57.8502073 167.045673,57.1584531 L167.045673,49.2793502 L168.67069,49.2793502 L168.67069,55.1707811 C168.67069,56.5296656 168.930905,58.1043605 170.713466,58.1043605 C172.10128,58.1043605 172.478326,57.2374253 172.478326,56.173851 L172.478326,49.2793502 L174.103343,49.2793502 L174.103343,49.2793502" id="path34" fill="#231F20"></path>
                    <path d="M182.134606,54.30367 C182.134606,52.9227999 182.193022,50.6190633 180.231673,50.6190633 C179.022646,50.6190633 178.286256,51.3665729 178.286256,54.5578232 C178.286256,55.8783649 178.348212,58.083782 180.190959,58.083782 C182.230195,58.083782 182.134606,55.7809248 182.134606,54.30367 Z M182.095662,58.0069204 L182.054948,58.0069204 C181.598244,58.9700646 180.768035,59.4234951 179.716553,59.4234951 C178.904045,59.4234951 176.585122,59.1302955 176.585122,54.5578232 C176.585122,51.6036653 177.117943,49.2793502 179.835155,49.2793502 C180.706079,49.2793502 181.619487,49.7327807 182.033706,50.5193367 L182.095662,50.5193367 L182.095662,48.4514613 C182.095662,47.427637 181.479643,46.7372899 180.350274,46.7372899 C179.458108,46.7372899 178.842089,47.2491141 178.824387,48.1765537 L176.999342,48.1765537 C176.861268,46.3441878 178.369454,45.517706 180.031644,45.517706 C182.230195,45.517706 183.720679,46.0487017 183.720679,48.2748732 L183.720679,59.2277355 L182.095662,59.2277355 L182.095662,58.0069204" id="path36" fill="#231F20"></path>
                    <path d="M70.1553946,80.3338888 L70.1553946,79.1130737 L71.7002224,79.1130737 L71.7002224,70.3855035 L73.327186,70.3855035 L73.327186,79.1130737 L75.3497828,79.1130737 L75.3497828,80.3338888 L73.327186,80.3338888 L73.327186,82.0274817 C73.327186,82.8347921 73.6231585,83.565065 75.3497828,83.4482776 L75.3497828,84.6073572 C75.1111638,84.6485142 74.9114886,84.6678615 74.5739171,84.6678615 C73.1273338,84.6678615 71.7002224,84.2742317 71.7002224,82.2631671 L71.7002224,80.3338888 L70.1553946,80.3338888 L70.1553946,80.3338888" id="path38" fill="#231F20"></path>
                    <path d="M79.6265145,84.0563107 L77.7630561,84.0563107 L77.7630561,82.0090138 L79.6265145,82.0090138 L79.6265145,84.0563107 Z M83.1164055,84.0563107 L81.251531,84.0563107 L81.251531,82.0090138 L83.1164055,82.0090138 L83.1164055,84.0563107 Z M82.2631834,73.733467 C82.2631834,72.0790964 81.1727584,71.4297304 80.2993563,71.4297304 C79.1515778,71.4297304 78.5962753,72.2391514 78.5962753,73.4379809 L78.5962753,80.3338888 L76.9691347,80.3338888 L76.9691347,72.748865 C76.9691347,71.0552721 77.9220174,70.1883368 79.6659893,70.1883368 C80.7162314,70.1883368 81.667698,70.6808137 82.2037057,71.5864436 L82.2631834,71.5864436 L82.2631834,70.3855035 L83.9876834,70.3855035 C83.9296218,71.0758506 83.890147,71.7649665 83.890147,72.4535547 L83.890147,80.3338888 L82.2631834,80.3338888 L82.2631834,73.733467" id="path40" fill="#231F20"></path>
                    <path d="M88.5085217,80.3338888 L86.8835052,80.3338888 L86.8835052,70.3855035 L88.5085217,70.3855035 L88.5085217,76.2549488 C88.5085217,77.596069 88.9648716,78.9563605 90.7702685,78.9563605 C91.0676571,78.9563605 91.3422105,78.894625 91.6415463,78.8554028 L91.6415463,80.5296484 C90.0545885,80.5296484 89.2213693,80.3544673 88.5479965,78.8362313 L88.5085217,78.8362313 L88.5085217,80.3338888" id="path42" fill="#231F20"></path>
                    <path d="M98.4090849,77.0429119 L100.352024,77.0429119 C102.215659,77.0429119 103.621352,76.6513927 103.621352,74.3840642 C103.621352,73.341772 102.929923,71.9609019 100.986099,71.9609019 L98.4090849,71.9609019 L98.4090849,77.0429119 Z M98.4090849,83.0340693 L100.986099,83.0340693 C102.512871,83.0340693 103.186421,82.0674075 103.186421,80.8870459 C103.186421,79.5059999 102.493576,78.6388888 101.066288,78.621828 L98.4090849,78.621828 L98.4090849,83.0340693 Z M101.185243,70.3855035 C102.809552,70.3855035 105.48481,70.7392074 105.48481,74.3840642 C105.48481,76.333921 104.593529,77.5568467 102.553054,77.7939391 L102.553054,77.890148 C104.396509,78.3036527 105.010582,79.4875321 105.010582,81.2615042 C105.010582,81.5348289 104.930924,82.3813616 104.434568,83.1529673 C103.900685,83.9395233 103.226604,84.6073572 101.243305,84.6073572 L96.5856324,84.6073572 L96.5856324,70.3855035 L101.185243,70.3855035 L101.185243,70.3855035" id="path44" fill="#231F20"></path>
                    <path d="M109.72012,80.3338888 L108.094572,80.3338888 L108.094572,70.3855035 L109.72012,70.3855035 L109.72012,80.3338888 Z M107.99562,82.8759491 L109.820489,82.8759491 L109.820489,84.6073572 L107.99562,84.6073572 L107.99562,82.8759491" id="path46" fill="#231F20"></path>
                    <polyline id="path48" fill="#231F20" points="114.317784 84.6073572 112.692767 84.6073572 112.692767 70.3855035 114.317784 70.3855035 114.317784 84.6073572"></polyline>
                    <path d="M122.425341,75.7637031 C122.425341,73.7554526 122.425341,71.5074714 120.600473,71.5074714 C118.557165,71.5074714 118.557165,73.6764804 118.557165,75.1727308 C118.557165,77.8317543 118.796492,79.2105138 120.540995,79.2105138 C122.344975,79.2105138 122.425341,77.0828377 122.425341,75.7637031 L122.425341,75.7637031 Z M122.425341,79.3308189 L122.363031,79.3308189 C121.809853,80.1161437 121.1163,80.5296484 120.164126,80.5296484 C116.932856,80.5296484 116.852668,77.6750411 116.852668,75.1913746 C116.852668,70.8183555 118.4791,70.1883368 120.084645,70.1883368 C121.136303,70.1883368 121.82844,70.6417673 122.387283,71.5692069 L122.425341,71.5692069 L122.425341,70.3855035 L124.050181,70.3855035 L124.050181,84.6073572 L122.425341,84.6073572 L122.425341,79.3308189" id="path50" fill="#231F20"></path>
                    <path d="M132.399721,73.733467 C132.399721,72.0790964 131.306463,71.4297304 130.435893,71.4297304 C129.284752,71.4297304 128.731573,72.2391514 128.731573,73.4379809 L128.731573,80.3338888 L127.102309,80.3338888 L127.102309,72.748865 C127.102309,71.0552721 128.053775,70.1883368 129.799871,70.1883368 C130.850821,70.1883368 131.80512,70.6808137 132.337588,71.5864436 L132.399721,71.5864436 L132.399721,70.3855035 L134.121565,70.3855035 C134.062796,71.0758506 134.021197,71.7649665 134.021197,72.4535547 L134.021197,80.3338888 L132.399721,80.3338888 L132.399721,73.733467" id="path52" fill="#231F20"></path>
                    <path d="M144.016464,70.3855035 L144.016464,77.2800043 C144.016464,79.2504396 143.480633,80.5296484 141.340497,80.5296484 C140.050928,80.5296484 139.29719,80.1759444 138.664531,79.0525694 L138.58151,79.0525694 L138.58151,80.3338888 L136.859842,80.3338888 C136.918612,79.6433658 136.960034,78.9563605 136.960034,78.2646064 L136.960034,70.3855035 L138.58151,70.3855035 L138.58151,76.2769344 C138.58151,77.6358189 138.84084,79.2105138 140.624817,79.2105138 C142.014755,79.2105138 142.391625,78.3435785 142.391625,77.2800043 L142.391625,70.3855035 L144.016464,70.3855035 L144.016464,70.3855035" id="path54" fill="#231F20"></path>
                    <path d="M152.048789,75.4098232 C152.048789,74.0289532 152.105435,71.7252165 150.142316,71.7252165 C148.932935,71.7252165 148.199908,72.4727261 148.199908,75.6639765 C148.199908,76.9845182 148.258677,79.1899353 150.105142,79.1899353 C152.144379,79.1899353 152.048789,76.8870781 152.048789,75.4098232 L152.048789,75.4098232 Z M152.006305,79.1130737 L151.969132,79.1130737 C151.512428,80.0762178 150.678677,80.5296484 149.627196,80.5296484 C148.815396,80.5296484 146.495411,80.2364487 146.495411,75.6639765 C146.495411,72.7098186 147.031241,70.3855035 149.745798,70.3855035 C150.616722,70.3855035 151.530129,70.838934 151.94789,71.62549 L152.006305,71.62549 L152.006305,69.5595493 C152.006305,68.5337903 151.390286,67.8434432 150.264458,67.8434432 C149.368751,67.8434432 148.753086,68.3572021 148.735738,69.2827069 L146.910339,69.2827069 C146.772088,67.4517482 148.279388,66.6238593 149.945827,66.6238593 C152.144379,66.6238593 153.631322,67.1548549 153.631322,69.3810264 L153.631322,80.3338888 L152.006305,80.3338888 L152.006305,79.1130737" id="path56" fill="#231F20"></path>
                    <path d="M72.7540048,98.1490651 L74.697652,98.1490651 C76.5612874,98.1490651 77.9683959,97.757546 77.9683959,95.4902175 C77.9683959,94.4479253 77.274135,93.0670552 75.3331431,93.0670552 L72.7540048,93.0670552 L72.7540048,98.1490651 Z M72.7540048,104.140223 L75.3331431,104.140223 C76.857968,104.140223 77.533465,103.173561 77.533465,101.993199 C77.533465,100.612153 76.837788,99.7450421 75.4092605,99.7279813 L72.7540048,99.7279813 L72.7540048,104.140223 Z M75.5282159,91.4916567 C77.1565957,91.4916567 79.8318543,91.8453607 79.8318543,95.4902175 C79.8318543,97.4400743 78.9405735,98.663 76.8972657,98.9000924 L76.8972657,98.9963013 C78.7421374,99.409806 79.3576256,100.593685 79.3576256,102.367658 C79.3576256,102.640982 79.277968,103.487515 78.7816122,104.259121 C78.2477288,105.045677 77.5736479,105.71351 75.5903489,105.71351 L70.9298442,105.71351 L70.9298442,91.4916567 L75.5282159,91.4916567 L75.5282159,91.4916567" id="path58" fill="#231F20"></path>
                    <path d="M87.4975774,94.8396203 C87.4975774,93.1852496 86.4050282,92.5358837 85.5325112,92.5358837 C84.3845556,92.5358837 83.828014,93.3453046 83.828014,94.5441341 L83.828014,101.440042 L82.2037057,101.440042 L82.2037057,93.8550182 C82.2037057,92.1614253 83.1544642,91.2944901 84.8989672,91.2944901 C85.9486782,91.2944901 86.901561,91.786967 87.4354444,92.6925968 L87.4975774,92.6925968 L87.4975774,91.4916567 L89.2194221,91.4916567 C89.1618916,92.1820038 89.1218857,92.8711197 89.1218857,93.559708 L89.1218857,101.440042 L87.4975774,101.440042 L87.4975774,94.8396203" id="path60" fill="#231F20"></path>
                    <path d="M99.116445,91.4916567 L99.116445,98.3861576 C99.116445,100.356593 98.5799064,101.635802 96.4376461,101.635802 C95.1502012,101.635802 94.3964626,101.282098 93.7623875,100.158723 L93.6821988,100.158723 L93.6821988,101.440042 L91.9575218,101.440042 C92.0184156,100.749519 92.0578904,100.062514 92.0578904,99.3707596 L92.0578904,91.4916567 L93.6821988,91.4916567 L93.6821988,97.3830876 C93.6821988,98.7419721 93.9401126,100.316667 95.7255065,100.316667 C97.1124351,100.316667 97.4893044,99.4497318 97.4893044,98.3861576 L97.4893044,91.4916567 L99.116445,91.4916567 L99.116445,91.4916567" id="path62" fill="#231F20"></path>
                    <path d="M107.104339,96.8698563 C107.104339,94.8616059 107.104339,92.6136247 105.280887,92.6136247 C103.240411,92.6136247 103.240411,94.7826337 103.240411,96.2788841 C103.240411,98.9379076 103.476906,100.316667 105.222825,100.316667 C107.024858,100.316667 107.104339,98.1889909 107.104339,96.8698563 L107.104339,96.8698563 Z M107.104339,100.436972 L107.046986,100.436972 C106.492391,101.222297 105.796714,101.635802 104.845956,101.635802 C101.61327,101.635802 101.53379,98.7811944 101.53379,96.2975278 C101.53379,91.9245088 103.159514,91.2944901 104.766475,91.2944901 C105.816717,91.2944901 106.510978,91.7479206 107.064864,92.6753602 L107.104339,92.6753602 L107.104339,91.4916567 L108.731303,91.4916567 L108.731303,105.71351 L107.104339,105.71351 L107.104339,100.436972" id="path64" fill="#231F20"></path>
                    <path d="M112.934749,97.1653425 C112.954221,99.9216302 113.807443,100.414987 114.838391,100.414987 C116.026352,100.414987 116.841693,100.062514 116.841693,97.1653425 L112.934749,97.1653425 Z M118.565485,95.943648 L118.565485,96.7908842 C118.565485,100.07975 117.849805,101.635802 114.997529,101.635802 C111.527641,101.635802 111.190247,99.2346249 111.190247,96.3181063 C111.190247,91.9245088 112.874564,91.2944901 114.997529,91.2944901 C117.098898,91.2944901 118.466532,92.2989671 118.486004,94.5043842 L116.702026,94.5043842 C116.642548,93.503249 116.065827,92.6136247 114.958054,92.6136247 C113.688488,92.6136247 112.934749,93.1666059 112.934749,95.943648 L118.565485,95.943648 L118.565485,95.943648" id="path66" fill="#231F20"></path>
                    <path d="M127.528389,94.3290273 C127.528389,97.3611021 122.532437,97.3232869 122.532437,99.0766806 C122.532437,99.9423846 123.206694,100.414987 124.077972,100.414987 C125.108212,100.414987 125.664045,99.8632365 125.644042,98.8211202 L127.448731,98.8211202 C127.587158,100.789445 126.05897,101.635802 124.274992,101.635802 C121.45989,101.635802 120.825815,99.961556 120.825815,98.9185603 C120.825815,95.943648 125.823891,95.9046016 125.823891,94.1318606 C125.823891,93.1061016 125.070153,92.6136247 124.098683,92.6136247 C122.452956,92.6136247 122.432245,93.9547448 122.432245,94.5249627 L120.588081,94.5249627 C120.528604,92.2405734 121.875526,91.2944901 124.039914,91.2944901 C126.020911,91.2944901 127.528389,92.1429574 127.528389,94.3290273 L127.528389,94.3290273" id="path68" fill="#231F20"></path>
                    <path d="M136.603875,91.4916567 L136.603875,98.1889909 C136.603875,98.5634493 136.679993,99.5492825 137.160594,99.9423846 C137.592693,100.296089 137.772542,100.316667 138.387145,100.316667 C139.69831,100.316667 139.974811,99.3913381 139.974811,98.3861576 L139.974811,91.4916567 L141.599827,91.4916567 L141.599827,99.0561021 C141.599827,101.400996 139.912678,101.635802 138.865091,101.635802 C137.952214,101.635802 137.039514,101.421574 136.486336,100.356593 C136.106103,101.261519 135.054976,101.635802 134.14564,101.635802 C132.97715,101.635802 132.12322,101.261519 131.649522,100.198648 L131.6081,100.198648 L131.6081,101.440042 L129.882715,101.440042 C129.941485,100.749519 129.983084,100.062514 129.983084,99.3707596 L129.983084,91.4916567 L131.6081,91.4916567 L131.6081,98.1889909 C131.6081,98.5634493 131.687581,99.1556527 131.984793,99.6490091 C132.223412,100.023467 132.89767,100.316667 133.392078,100.316667 C134.702358,100.316667 134.975496,99.3913381 134.975496,98.3861576 L134.975496,91.4916567 L136.603875,91.4916567 L136.603875,91.4916567" id="path70" fill="#231F20"></path>
                    <path d="M146.09783,101.440042 L144.472106,101.440042 L144.472106,91.4916567 L146.09783,91.4916567 L146.09783,101.440042 Z M144.372622,103.982102 L146.198022,103.982102 L146.198022,105.71351 L144.372622,105.71351 L144.372622,103.982102" id="path72" fill="#231F20"></path>
                    <path d="M156.10779,91.4916567 L156.10779,98.3861576 C156.10779,100.356593 155.574969,101.635802 153.431293,101.635802 C152.140838,101.635802 151.390286,101.282098 150.754795,100.158723 L150.675137,100.158723 L150.675137,101.440042 L148.950106,101.440042 C149.008168,100.749519 149.046934,100.062514 149.046934,99.3707596 L149.046934,91.4916567 L150.675137,91.4916567 L150.675137,97.3830876 C150.675137,98.7419721 150.935352,100.316667 152.717914,100.316667 C154.105727,100.316667 154.482774,99.4497318 154.482774,98.3861576 L154.482774,91.4916567 L156.10779,91.4916567 L156.10779,91.4916567" id="path74" fill="#231F20"></path>
                    <path d="M160.607563,101.440042 L158.982547,101.440042 L158.982547,91.4916567 L160.607563,91.4916567 L160.607563,101.440042 Z M158.883417,103.982102 L160.704923,103.982102 L160.704923,105.71351 L158.883417,105.71351 L158.883417,103.982102" id="path76" fill="#231F20"></path>
                    <path d="M169.846083,94.3290273 C169.846083,97.3611021 164.847122,97.3232869 164.847122,99.0766806 C164.847122,99.9423846 165.521557,100.414987 166.39248,100.414987 C167.42626,100.414987 167.982093,99.8632365 167.959081,98.8211202 L169.766425,98.8211202 C169.904499,100.789445 168.376841,101.635802 166.59251,101.635802 C163.777939,101.635802 163.142448,99.961556 163.142448,98.9185603 C163.142448,95.943648 168.141409,95.9046016 168.141409,94.1318606 C168.141409,93.1061016 167.385546,92.6136247 166.417263,92.6136247 C164.767464,92.6136247 164.749762,93.9547448 164.749762,94.5249627 L162.903475,94.5249627 C162.848599,92.2405734 164.193929,91.2944901 166.358847,91.2944901 C168.336128,91.2944901 169.846083,92.1429574 169.846083,94.3290273 L169.846083,94.3290273" id="path78" fill="#231F20"></path>
                    <path d="M170.931197,101.440042 L170.931197,100.219227 L172.573916,100.219227 L172.573916,93.1460274 C172.573916,92.0034809 173.269593,91.3734623 174.814951,91.3734623 C175.351313,91.3734623 175.885904,91.4916567 176.422266,91.5328137 L176.422266,92.771569 C176.066462,92.7316432 175.806247,92.6925968 175.689416,92.6925968 C174.202472,92.6925968 174.202472,93.503249 174.202472,94.1318606 L174.202472,100.219227 L176.381552,100.219227 L176.381552,101.440042 L174.202472,101.440042 L174.202472,104.078311 L172.573916,103.352084 L172.573916,101.440042 L170.931197,101.440042 L170.931197,101.440042" id="path80" fill="#231F20"></path>
                    <path d="M179.488201,97.1653425 C179.509443,99.9216302 180.360895,100.414987 181.394675,100.414987 C182.584229,100.414987 183.396738,100.062514 183.396738,97.1653425 L179.488201,97.1653425 Z M185.120884,95.943648 L185.120884,96.7908842 C185.120884,100.07975 184.409275,101.635802 181.55222,101.635802 C178.082686,101.635802 177.746354,99.2346249 177.746354,96.3181063 C177.746354,91.9245088 179.429786,91.2944901 181.55222,91.2944901 C183.651642,91.2944901 185.019984,92.2989671 185.041226,94.5043842 L183.256894,94.5043842 C183.194938,93.503249 182.624943,92.6136247 181.515046,92.6136247 C180.242294,92.6136247 179.488201,93.1666059 179.488201,95.943648 L185.120884,95.943648 L185.120884,95.943648" id="path82" fill="#231F20"></path>
                    <path d="M189.146251,101.440042 L187.521235,101.440042 L187.521235,91.4916567 L189.146251,91.4916567 L189.146251,97.3611021 C189.146251,98.7022222 189.601185,100.062514 191.406759,100.062514 C191.704147,100.062514 191.980294,100.000778 192.277683,99.961556 L192.277683,101.635802 C190.69161,101.635802 189.8614,101.460621 189.186965,99.9423846 L189.146251,99.9423846 L189.146251,101.440042" id="path84" fill="#231F20"></path>
                    <path d="M195.639236,101.440042 L194.01068,101.440042 L194.01068,91.4916567 L195.639236,91.4916567 L195.639236,101.440042 Z M193.91332,103.982102 L195.738366,103.982102 L195.738366,105.71351 L193.91332,105.71351 L193.91332,103.982102" id="path86" fill="#231F20"></path>
                    <path d="M203.801492,94.8396203 C203.801492,93.1852496 202.716378,92.5358837 201.840143,92.5358837 C200.689533,92.5358837 200.137239,93.3453046 200.137239,94.5441341 L200.137239,101.440042 L198.512223,101.440042 L198.512223,93.8550182 C198.512223,92.1614253 199.462804,91.2944901 201.208193,91.2944901 C202.259674,91.2944901 203.210255,91.786967 203.746617,92.6925968 L203.801492,92.6925968 L203.801492,91.4916567 L205.529179,91.4916567 C205.467223,92.1820038 205.430049,92.8711197 205.430049,93.559708 L205.430049,101.440042 L203.801492,101.440042 L203.801492,94.8396203" id="path88" fill="#231F20"></path>
                    <path d="M214.965957,91.4916567 L214.965957,98.1889909 C214.965957,98.5634493 215.043845,99.5492825 215.521791,99.9423846 C215.957253,100.296089 216.13427,100.316667 216.748519,100.316667 C218.060215,100.316667 218.336362,99.3913381 218.336362,98.3861576 L218.336362,91.4916567 L219.964918,91.4916567 L219.964918,99.0561021 C219.964918,101.400996 218.277946,101.635802 217.226465,101.635802 C216.313057,101.635802 215.404959,101.421574 214.847356,100.356593 C214.470309,101.261519 213.418828,101.635802 212.50719,101.635802 C211.338878,101.635802 210.483886,101.261519 210.01125,100.198648 L209.968766,100.198648 L209.968766,101.440042 L208.24462,101.440042 C208.306576,100.749519 208.34375,100.062514 208.34375,99.3707596 L208.34375,91.4916567 L209.968766,91.4916567 L209.968766,98.1889909 C209.968766,98.5634493 210.048424,99.1556527 210.345812,99.6490091 C210.584785,100.023467 211.25922,100.316667 211.756638,100.316667 C213.059484,100.316667 213.340941,99.3913381 213.340941,98.3861576 L213.340941,91.4916567 L214.965957,91.4916567 L214.965957,91.4916567" id="path90" fill="#231F20"></path>
                    <polyline id="path92" fill="#F2CF04" points="52.1141716 35.2071743 58.3858855 35.2071743 58.3858855 0.0281415377 52.1141716 0.0281415377 52.1141716 35.2071743"></polyline>
                    <polyline id="path94" fill="#ED1C24" points="52.1141716 70.5077433 58.3858855 70.5077433 58.3858855 35.2071743 52.1141716 35.2071743 52.1141716 70.5077433"></polyline>
                    <polyline id="path96" fill="#231F20" points="52.1141716 105.561018 58.3858855 105.561018 58.3858855 70.3855035 52.1141716 70.3855035 52.1141716 105.561018"></polyline>
                    <path d="M32.5497169,99.612601 C32.5497169,101.617334 31.0831307,103.202406 30.5673031,103.650912 L30.1952132,103.566487 C30.7443201,102.90006 31.7122493,101.785655 31.7122493,100.308576 C31.7122493,97.4022591 28.6208236,94.8753249 25.0921659,94.8292431 C25.1190725,94.5304151 25.1178334,94.2658847 25.1178334,94.0405765 C25.1178334,93.6249612 25.0907498,93.2181401 25.0402999,92.8231032 C29.0453105,92.8952159 32.5497169,96.1292063 32.5497169,99.612601 L32.5497169,99.612601 Z M27.0289094,75.5471891 C25.3196328,75.5471891 24.9496672,75.7258879 24.4988048,75.7258879 C24.2092049,75.7258879 23.9339434,75.6984499 23.9339434,75.2909252 C23.9339434,75.0079269 24.2541672,74.5956534 24.542528,74.3793153 C24.9448877,74.7757592 25.4966498,74.8615909 26.3879307,74.8615909 C26.8049828,74.8615909 27.3726765,74.7812116 27.6229786,74.7481453 C27.5884602,74.5029622 27.5385414,74.1868975 27.5385414,73.7417336 C27.5385414,73.5081588 27.5468612,73.2353618 27.5468612,72.9467352 C27.5468612,71.9450723 27.3995831,71.4126696 27.0476732,71.0105974 C27.1237905,70.9646915 27.3255899,70.9233586 27.4466696,70.9233586 C28.1014556,70.9233586 28.2687367,71.2545493 28.2687367,72.9433933 C28.2687367,73.453107 28.3103357,73.9258848 28.3103357,74.047421 C29.2251598,73.3535563 30.1571546,72.1167357 30.1571546,71.2223624 C30.4559593,71.3748544 30.8071611,71.8233601 30.8071611,72.1601792 C30.8071611,72.7694435 29.7824095,73.6764804 28.6948168,74.7708345 C28.8461663,74.806539 29.2499422,74.9220952 29.5818492,74.9220952 C30.4359564,74.9220952 31.1266769,74.7812116 31.5283286,74.3105444 C31.6874669,74.4823837 31.8188135,74.9989568 31.8188135,75.2909252 C31.8188135,75.7994077 31.5249653,75.782171 31.3120138,75.782171 C30.4026772,75.782171 29.278973,75.6412874 28.4747846,75.5093739 C28.1823524,75.8977272 26.318894,78.4019722 25.8354605,79.7381676 C25.6965021,79.78636 25.5886987,79.8255823 25.3598157,79.8255823 C24.9116085,79.8255823 24.7947773,79.5149701 24.6793622,79.0889775 C25.706238,77.8502222 26.6943472,76.5036496 27.0289094,75.5471891 L27.0289094,75.5471891 Z M16.825647,79.0889775 C16.7100549,79.5149701 16.5960559,79.8255823 16.1473177,79.8255823 C15.9163104,79.8255823 15.8085071,79.78636 15.672912,79.7381676 C15.1861151,78.4019722 13.3246039,75.8977272 13.0300475,75.5093739 C12.2293995,75.6412874 11.1023319,75.782171 10.1944115,75.782171 C9.98004389,75.782171 9.68761173,75.7994077 9.68761173,75.2909252 C9.68761173,74.9989568 9.81754224,74.4823837 9.97862775,74.3105444 C10.3790403,74.7812116 11.0711769,74.9220952 11.923691,74.9220952 C12.2577222,74.9220952 12.6588428,74.806539 12.8101924,74.7708345 C11.7225997,73.6764804 10.697848,72.7694435 10.697848,72.1601792 C10.697848,71.8233601 11.051174,71.3748544 11.3490937,71.2223624 C11.3490937,72.1167357 12.2819735,73.3535563 13.1946734,74.047421 C13.1946734,73.9258848 13.2382196,73.453107 13.2382196,72.9433933 C13.2382196,71.2545493 13.4055007,70.9233586 14.0597557,70.9233586 C14.1794192,70.9233586 14.3812186,70.9646915 14.4594602,71.0105974 C14.1073733,71.4126696 13.958679,71.9450723 13.958679,72.9467352 C13.958679,73.2353618 13.969831,73.5081588 13.969831,73.7417336 C13.969831,74.1868975 13.917257,74.5029622 13.8834467,74.7481453 C14.1323327,74.7812116 14.7021505,74.8615909 15.1190257,74.8615909 C16.0083593,74.8615909 16.5608295,74.7757592 16.9638973,74.3793153 C17.2529661,74.5956534 17.5724819,75.0079269 17.5724819,75.2909252 C17.5724819,75.6984499 17.2979285,75.7258879 17.0074435,75.7258879 C16.5551649,75.7258879 16.1866155,75.5471891 14.4766308,75.5471891 C14.8127862,76.5036496 15.7987711,77.8502222 16.825647,79.0889775 Z M9.79470704,100.308576 C9.79470704,101.785655 10.7628133,102.90006 11.3097959,103.566487 L10.9412464,103.650912 C10.4218784,103.202406 8.95670836,101.617334 8.95670836,99.612601 C8.95670836,96.1051101 12.5108566,92.8486065 16.5525097,92.8209926 C16.5096716,93.2023104 16.4847122,93.6063174 16.4847122,94.0405765 C16.4847122,94.3105594 16.4958642,94.5764969 16.5185224,94.8259013 C12.9479116,94.8259013 9.79470704,97.3748211 9.79470704,100.308576 L9.79470704,100.308576 Z M20.6529325,103.009988 C20.8375613,103.431056 21.084323,103.930568 21.084323,104.480208 C21.084323,106.002137 19.8149338,106.726958 18.1152162,106.726958 C17.2425221,106.726958 16.8013957,106.447301 16.8013957,106.165534 C16.8013957,105.883943 17.0904645,105.265532 17.2011001,105.074522 C17.5142433,105.213998 18.082645,105.378978 18.4111886,105.378978 C19.577731,105.378978 20.4490089,104.078311 20.6529325,103.009988 Z M21.4882759,104.956327 C22.4818726,104.764085 23.1587858,106.024826 22.2149309,106.249431 C22.3455695,105.833816 21.7102553,105.54044 21.7102553,105.54044 C21.7102553,105.54044 21.468096,106.096939 21.7821242,106.414235 C21.2039865,106.696002 21.0574164,106.35461 21.0464414,106.00073 C21.2739083,105.698384 21.4218945,105.345912 21.4882759,104.956327 Z M24.7043216,96.3147645 C24.8632829,96.3043873 25.0146324,96.2961207 25.1737708,96.2961207 C27.970109,96.2961207 30.7443201,98.092782 30.7443201,100.395815 C30.7443201,101.624193 30.1883096,102.483038 29.5016604,103.434574 C29.0985926,103.36721 28.7314593,103.329395 28.4423905,103.329395 C27.1756565,103.329395 26.4882993,104.004791 26.4383805,104.667876 C26.4383805,105.263422 26.9265935,105.715621 27.6845805,105.715621 C28.8606817,105.715621 31.0055972,104.621091 33.1657362,104.621091 C32.9534928,104.46174 32.6001668,104.293418 32.1742638,104.135298 C33.4402897,103.001722 34.2866081,101.48331 34.6096643,99.8598947 L37.9211221,94.5935577 C38.4762475,93.7141347 39.6532339,91.9862443 41.4241124,90.636154 C39.2832682,90.636154 37.8602282,90.5867304 36.050583,93.4325434 L34.3536976,96.1313169 C34.2285466,95.7821859 34.0722405,95.442201 33.8911521,95.1088996 L37.266159,89.7396701 C37.8290732,88.8519805 38.9908361,87.1356985 40.7712735,85.7808593 C38.6291903,85.7808593 37.2102216,85.7293251 35.3979211,88.5770728 L32.4923634,93.1989686 C32.2751635,92.9708463 32.0462804,92.7455381 31.802882,92.5290242 L35.9047209,86.0089816 C36.4690513,85.1158396 37.6270968,83.4104624 39.4091273,82.0515779 C37.266159,82.0515779 35.8466594,82.0021543 34.0343589,84.8499021 L30.0381991,91.2051407 C29.7733816,91.0382262 29.5052008,90.8801059 29.2285232,90.727614 L34.1048116,82.9707509 C34.6677258,82.0811265 35.8252403,80.371704 37.6092181,79.0133471 C35.4676659,79.0133471 34.0453339,78.96322 32.2371048,81.8111436 L27.2135381,89.7999985 C26.9163265,89.6846182 26.6127423,89.578208 26.3063258,89.4805921 L31.9848555,80.4506762 C32.5373257,79.5768814 33.723871,77.8419556 35.4864297,76.4953831 C33.3448775,76.4953831 31.9232536,76.4452559 30.1143164,79.2930037 L24.0638739,88.9151231 L23.8787141,88.8829362 C23.7147963,88.3621418 23.6006203,87.8763486 23.6006203,87.3919623 C23.6006203,84.3690335 25.5970185,81.6998087 27.9948914,79.6386169 C27.8400015,79.5733637 27.5732368,79.5473328 27.3255899,79.5473328 C26.8333055,79.5473328 26.5123736,79.5768814 26.2870309,79.6145207 C26.8442806,78.3587046 28.0364904,76.7405662 28.6387024,75.902476 C29.4235959,76.0419525 30.5651788,76.1532875 31.3120138,76.1532875 C32.093367,76.1532875 32.1797513,75.6984499 32.1797513,75.2909252 C32.1797513,74.5866833 31.8478443,74.019983 31.4633633,73.7072602 C31.3189174,74.0715172 31.0270163,74.5523858 29.5818492,74.5523858 L29.4359871,74.5476369 C29.8599429,74.0783767 31.1806671,73.0169131 31.1806671,72.1601792 C31.1806671,71.5947102 30.556151,70.7460669 29.7305435,70.7460669 C29.7824095,70.9282834 29.7733816,71.0966049 29.7733816,71.2223624 C29.7733816,71.9141166 29.1566542,72.7247688 28.635339,73.2902378 C28.6484383,73.1219162 28.6422427,73.14056 28.6422427,72.9433933 C28.6422427,71.3060835 28.4942565,70.553825 27.4466696,70.553825 C26.9342053,70.553825 26.578755,70.8340092 26.4578524,70.9164991 C27.1368898,71.5396583 27.1735323,72.0294969 27.1735323,72.9467352 L27.1666286,73.7417336 C27.1652125,73.9512122 27.1685758,74.2280545 27.201147,74.4308495 C26.8264019,74.4823837 26.6777076,74.4802731 26.3879307,74.4802731 C26.3879307,74.4802731 24.8999254,74.5970605 24.542528,73.8296759 C24.1399912,74.1951641 23.555658,74.7138478 23.555658,75.2909252 C23.555658,75.6689013 23.7347992,76.0968285 24.4988048,76.0968285 C24.7892897,76.0968285 25.7012815,75.9183057 26.4647561,75.9183057 C26.2608324,76.3717362 25.3467164,77.6977303 24.5582825,78.662985 C24.4373799,78.2899337 24.2499188,77.8832885 23.8349909,77.5547361 C23.7776373,78.175257 23.4133363,80.1298627 22.4390345,81.2717055 C22.3255665,80.5008033 22.1720928,79.7073878 22.1720928,78.0357805 C22.1720928,73.9670418 23.1566615,70.9611738 25.2477639,70.3855035 C24.9767508,69.9134292 24.4021535,69.4909543 23.8047209,69.4909543 C23.0398303,69.4909543 22.6229552,70.3510301 22.1975832,71.1637929 C21.97702,70.5627951 21.3671963,69.0992593 20.7524161,69.0992593 C20.1404681,69.0992593 19.5292283,70.5627951 19.3093731,71.1637929 C18.8841782,70.3510301 18.467126,69.4909543 17.7002882,69.4909543 C17.1049799,69.4909543 16.5296745,69.9134292 16.2586614,70.3855035 C18.3474625,70.9611738 19.3343325,73.9670418 19.3343325,78.0357805 C19.3343325,79.7073878 19.1813898,80.5008033 19.0659747,81.2717055 C18.0937971,80.1298627 17.7273718,78.175257 17.6712574,77.5547361 C17.2563295,77.8832885 17.0690454,78.2899337 16.9486738,78.662985 C16.1597089,77.6977303 15.247009,76.3717362 15.0402531,75.9183057 C15.8056748,75.9183057 16.7171355,76.0968285 17.0074435,76.0968285 C17.7721571,76.0968285 17.9527145,75.6689013 17.9527145,75.2909252 C17.9527145,74.7138478 17.3650179,74.1951641 16.9638973,73.8296759 C16.6057918,74.5970605 15.1190257,74.4802731 15.1190257,74.4802731 C14.8299568,74.4802731 14.6807315,74.4823837 14.3051013,74.4308495 C14.3362563,74.2280545 14.34316,73.9512122 14.3383805,73.7417336 L14.3343091,72.9467352 C14.3343091,72.0294969 14.3688274,71.5396583 15.0485729,70.9164991 C14.9274932,70.8340092 14.5727511,70.553825 14.0597557,70.553825 C13.0121688,70.553825 12.8627664,71.3060835 12.8627664,72.9433933 C12.8627664,73.14056 12.8565708,73.1219162 12.8717943,73.2902378 C12.3483549,72.7247688 11.7328667,71.9141166 11.7328667,71.2223624 C11.7328667,71.0966049 11.7245469,70.9282834 11.7744657,70.7460669 C10.9515134,70.7460669 10.3257582,71.5947102 10.3257582,72.1601792 C10.3257582,73.0169131 11.6486065,74.0783767 12.0704382,74.5476369 L11.923691,74.5523858 C10.47994,74.5523858 10.1860917,74.0715172 10.0428849,73.7072602 C9.6571648,74.019983 9.32525785,74.5866833 9.32525785,75.2909252 C9.32525785,75.6984499 9.4130583,76.1532875 10.1944115,76.1532875 C10.9431936,76.1532875 12.0835374,76.0419525 12.8675459,75.902476 C13.4685188,76.7405662 14.6605515,78.3587046 15.2179782,79.6145207 C14.9945827,79.5768814 14.6750669,79.5473328 14.1806583,79.5473328 C13.9338966,79.5473328 13.6648307,79.5733637 13.5134811,79.6386169 C15.9086987,81.6998087 17.9043889,84.3690335 17.9043889,87.3919623 C17.9043889,87.8763486 17.7923371,88.3621418 17.6262951,88.8829362 L17.4437905,88.9151231 L11.3926399,79.2930037 C9.58246361,76.4452559 8.16137078,76.4953831 6.02070368,76.4953831 C7.78326238,77.8419556 8.96839149,79.5768814 9.52156975,80.4506762 L15.1999225,89.4805921 C14.8929749,89.578208 14.592223,89.6846182 14.2934182,89.7999985 L9.27055958,81.8111436 C7.45967522,78.96322 6.03716626,79.0133471 3.89844635,79.0133471 C5.68118499,80.371704 6.8372833,82.0811265 7.4001975,82.9707509 L12.2791412,90.727614 C12.0005164,90.8801059 11.7314505,91.0382262 11.4680492,91.2051407 L7.47135835,84.8499021 C5.65976593,82.0021543 4.24008924,82.0515779 2.09729793,82.0515779 C3.87985956,83.4104624 5.03879014,85.1158396 5.60170434,86.0089816 L9.70212713,92.5290242 C9.46067588,92.7455381 9.23108478,92.9708463 9.01476995,93.1989686 L6.1092122,88.5770728 C4.29620364,85.7293251 2.87652695,85.7808593 0.734974764,85.7808593 C2.51417307,87.1356985 3.67717504,88.8519805 4.24008924,89.7396701 L7.61385707,95.1088996 C7.43471582,95.442201 7.27911784,95.7821859 7.15325872,96.1313169 L5.45495721,93.4325434 C3.64478092,90.5867304 2.2236881,90.636154 0.0837290615,90.636154 C1.85513861,91.9862443 3.02929266,93.7141347 3.58671933,94.5935577 L6.8974691,99.8598947 C7.21964011,101.48331 8.0659586,103.001722 9.33216151,104.135298 C8.90820569,104.293418 8.55275547,104.46174 8.33980396,104.621091 C10.5013591,104.621091 12.6443274,105.71351 13.8204286,105.71351 C14.5810709,105.71351 15.0671597,105.263422 15.0671597,104.667876 C15.0195421,104.004791 14.3307688,103.329395 13.0626187,103.329395 C12.7756741,103.329395 12.4085407,103.36721 12.0038797,103.434574 C11.3181157,102.483038 10.7628133,101.624193 10.7628133,100.395815 C10.7628133,98.092782 13.5356082,96.2961207 16.3346017,96.2961207 C16.4923239,96.2961207 16.6436735,96.3043873 16.8013957,96.3147645 C17.3559901,98.1800208 18.5356316,99.4050571 19.4787784,100.601952 C18.3474625,101.010708 17.0883403,102.077624 17.0883403,102.559899 C17.2315471,102.642389 19.3964655,101.965585 19.6212772,101.90596 C19.6669476,101.893473 19.7138571,101.890131 19.7657231,101.90596 C20.0291244,101.984933 20.2498647,102.367658 20.2498647,102.407407 C20.0181494,102.445223 18.6600746,102.620404 17.7307351,102.954936 C17.0254992,103.2112 16.6686329,103.676415 16.6686329,103.853707 C16.8941526,103.889411 17.7542784,103.441433 19.0155248,103.441433 C19.4809026,103.441433 19.5727745,103.460077 20.0362051,103.517063 C19.7104937,104.286559 19.0985458,104.937156 18.4111886,104.937156 C18.1338029,104.937156 17.5287587,104.765317 17.0219589,104.514681 C16.670049,105.057461 16.3602692,105.774015 16.3602692,106.165534 C16.3602692,106.626 16.8201595,107.166669 18.1152162,107.166669 C18.47757,107.166669 18.8156726,107.135713 19.1309399,107.07732 C19.3833662,107.031238 19.5963178,106.974251 19.8252008,106.884902 C19.8073221,106.915858 19.7968781,106.984629 19.7968781,107.048475 C19.7968781,107.227173 19.9593797,107.413963 20.5684954,107.413963 C21.634138,107.413963 22.7273952,107.066943 24.0681223,107.066943 C24.4159608,107.066943 24.6510394,107.07732 24.8523078,107.161744 C24.7657465,106.89739 24.3888772,106.505695 24.0431629,106.18963 C24.2554063,105.899069 24.8107088,105.201686 24.8107088,104.073562 C24.8107088,102.261071 23.608232,100.766756 23.608232,98.9343899 C23.608232,97.8454883 24.4518953,96.8869172 24.7043216,96.3147645 L24.7043216,96.3147645" id="path98" fill="#231F20"></path>
                    <path d="M75.1984332,147.250596 C75.1984332,148.297109 74.7654495,148.863458 73.6121835,148.863458 C73.2531929,148.863458 71.9650399,148.801898 71.9650399,146.942798 L71.9650399,143.938689 C71.9650399,141.993405 72.5341497,141.500928 73.6121835,141.500928 C74.4308873,141.500928 74.9750377,141.722543 75.2115324,141.89491 L75.2115324,144.554285 L73.5629727,144.554285 L73.5629727,145.539239 L76.3509911,145.539239 L76.3509911,141.217754 C75.6200878,140.823772 74.7654495,140.55291 73.6121835,140.55291 C71.716862,140.55291 70.7999137,141.525552 70.7999137,143.987936 L70.7999137,146.905862 C70.7999137,148.678779 71.716862,149.811476 73.6121835,149.811476 C75.5455636,149.811476 76.4630429,149.109696 76.3883417,147.250596 L75.1984332,147.250596" id="path100" fill="#231F20"></path>
                    <polyline id="path102" fill="#231F20" points="78.4820993 140.737589 78.4820993 149.626797 83.0914461 149.626797 83.0914461 148.641843 79.6217351 148.641843 79.6217351 145.785477 82.8439763 145.785477 82.8439763 144.800523 79.6217351 144.800523 79.6217351 141.722543 83.1654393 141.722543 83.1654393 140.737589 78.4820993 140.737589"></polyline>
                    <polyline id="path104" fill="#231F20" points="84.5913115 140.737589 84.5913115 149.626797 89.0271816 149.626797 89.0271816 148.641843 85.7309473 148.641843 85.7309473 145.785477 88.854236 145.785477 88.854236 144.800523 85.7309473 144.800523 85.7309473 140.737589 84.5913115 140.737589"></polyline>
                    <path d="M90.1418579,143.987936 L90.1418579,146.905862 C90.1418579,148.678779 91.0586292,149.811476 92.9553668,149.811476 C94.8506883,149.811476 95.7676366,148.678779 95.7676366,146.905862 L95.7676366,143.987936 C95.7676366,141.525552 94.8506883,140.55291 92.9553668,140.55291 C91.0586292,140.55291 90.1418579,141.525552 90.1418579,143.987936 L90.1418579,143.987936 Z M92.458834,150.67331 L91.295124,150.67331 L91.295124,151.95375 L92.458834,151.95375 L92.458834,150.67331 Z M94.6025104,143.938689 L94.6025104,146.942798 C94.6025104,148.801898 93.3141804,148.863458 92.9553668,148.863458 C92.5958452,148.863458 91.3069841,148.801898 91.3069841,146.942798 L91.3069841,143.938689 C91.3069841,141.993405 91.876625,141.500928 92.9553668,141.500928 C94.0334006,141.500928 94.6025104,141.993405 94.6025104,143.938689 Z M94.639861,150.67331 L93.4754429,150.67331 L93.4754429,151.95375 L94.639861,151.95375 L94.639861,150.67331" id="path106" fill="#231F20"></path>
                    <path d="M98.8654349,144.825147 L98.8654349,140.737589 L97.7257991,140.737589 L97.7257991,149.626797 L100.811206,149.626797 C102.397456,149.626797 102.954706,148.518724 102.954706,147.410651 C102.954706,146.364138 102.372497,145.563863 101.318714,145.379184 L101.318714,145.35456 C102.347006,145.194505 102.718919,144.849771 102.781229,143.064542 C102.792912,142.682873 102.917355,141.291625 103.090301,140.737589 L101.900923,140.737589 C101.578752,141.353185 101.653453,142.510506 101.554501,143.69245 C101.467408,144.775899 100.587103,144.825147 100.20333,144.825147 L98.8654349,144.825147 Z M98.8654349,145.810101 L100.57542,145.810101 C101.392707,145.810101 101.789579,146.511881 101.789579,147.287532 C101.789579,147.927752 101.467408,148.641843 100.587103,148.641843 L98.8654349,148.641843 L98.8654349,145.810101" id="path108" fill="#231F20"></path>
                    <path d="M104.664867,149.626797 L107.415535,149.626797 C108.555702,149.626797 109.373698,149.220504 109.819781,148.272486 C110.179302,147.521458 110.215945,145.748541 110.215945,145.465367 C110.215945,143.569331 110.042291,142.47357 109.671086,141.882598 C109.187653,141.119258 108.282565,140.737589 106.721982,140.737589 L104.664867,140.737589 L104.664867,149.626797 Z M105.804326,141.722543 L106.88236,141.722543 C108.468609,141.722543 109.050819,142.313515 109.050819,144.381918 L109.050819,146.179459 C109.050819,147.976999 108.493392,148.641843 107.304191,148.641843 L105.804326,148.641843 L105.804326,141.722543" id="path110" fill="#231F20"></path>
                    <polyline id="path112" fill="#231F20" points="112.21075 140.737589 112.21075 149.626797 116.820805 149.626797 116.820805 148.641843 113.350385 148.641843 113.350385 145.785477 116.572627 145.785477 116.572627 144.800523 113.350385 144.800523 113.350385 141.722543 116.894798 141.722543 116.894798 140.737589 112.21075 140.737589"></polyline>
                    <path d="M119.521731,144.825147 L119.521731,140.737589 L118.381564,140.737589 L118.381564,149.626797 L121.467502,149.626797 C123.053044,149.626797 123.611178,148.518724 123.611178,147.410651 C123.611178,146.364138 123.028261,145.563863 121.974479,145.379184 L121.974479,145.35456 C123.003302,145.194505 123.374684,144.849771 123.436817,143.064542 C123.449385,142.682873 123.573828,141.291625 123.746596,140.737589 L122.557396,140.737589 C122.23434,141.353185 122.309041,142.510506 122.210974,143.69245 C122.123173,144.775899 121.243575,144.825147 120.859803,144.825147 L119.521731,144.825147 Z M119.521731,145.810101 L121.231007,145.810101 C122.04918,145.810101 122.446052,146.511881 122.446052,147.287532 C122.446052,147.927752 122.123173,148.641843 121.243575,148.641843 L119.521731,148.641843 L119.521731,145.810101" id="path114" fill="#231F20"></path>
                    <polyline id="path116" fill="#231F20" points="130.313575 149.626797 130.313575 148.641843 127.960487 148.641843 127.960487 140.737589 126.82032 140.737589 126.82032 148.641843 124.465817 148.641843 124.465817 149.626797 130.313575 149.626797"></polyline>
                    <polyline id="path118" fill="#231F20" points="137.352126 140.737589 135.989272 140.737589 133.39969 149.626797 134.638101 149.626797 136.683356 141.808726 136.708315 141.808726 138.801365 149.626797 139.966491 149.626797 137.352126 140.737589"></polyline>
                    <path d="M141.094975,143.987936 L141.094975,146.905862 C141.094975,148.678779 142.011215,149.811476 143.907245,149.811476 C145.802566,149.811476 146.720222,148.678779 146.720222,146.905862 L146.720222,143.987936 C146.720222,141.525552 145.802566,140.55291 143.907245,140.55291 C142.011215,140.55291 141.094975,141.525552 141.094975,143.987936 L141.094975,143.987936 Z M145.555096,143.938689 L145.555096,146.942798 C145.555096,148.801898 144.266766,148.863458 143.907245,148.863458 C143.547723,148.863458 142.258862,148.801898 142.258862,146.942798 L142.258862,143.938689 C142.258862,141.993405 142.829211,141.500928 143.907245,141.500928 C144.985278,141.500928 145.555096,141.993405 145.555096,143.938689" id="path120" fill="#231F20"></path>
                    <polyline id="path122" fill="#231F20" points="149.781201 140.737589 148.715027 140.737589 148.715027 149.626797 150.561846 149.626797 152.817043 142.165772 152.841826 142.165772 155.121805 149.626797 157.005267 149.626797 157.005267 140.737589 155.865277 140.737589 155.865277 148.641843 155.838724 148.641843 153.335703 140.737589 152.25944 140.737589 149.805983 148.641843 149.781201 148.641843 149.781201 140.737589"></polyline>
                </g>
            </g>
        </g>
    </g>
</svg>