<?xml version="1.0" encoding="UTF-8"?>
<svg width="301px" height="237px" viewBox="0 0 301 237" version="1.1" xmlns="http://www.w3.org/2000/svg" xmlns:xlink="http://www.w3.org/1999/xlink">
    <title>OKFD-Logo</title>
    <g id="OKFD-Logo" stroke="none" stroke-width="1" fill="none" fill-rule="evenodd" transform="translate(1.000000, 0.000000)">
        <g id="Open_Knowledge_Foundation_Deutschland_Logo" transform="translate(38.000000, 70.000000)" fill-rule="nonzero">
            <g id="Group" transform="translate(108.000000, 22.000000)" fill="#000000">
                <path d="M4.53715776,8.73927577 C1.86023468,8.73927577 0.075619296,6.84401114 0.075619296,4.37715877 C0.075619296,1.91030641 1.86023468,0.0300835655 4.53715776,0.0300835655 C7.19895698,0.0300835655 8.98357236,1.92534819 8.98357236,4.37715877 C8.98357236,6.84401114 7.19895698,8.73927577 4.53715776,8.73927577 Z M4.53715776,1.66963788 C3.00964798,1.66963788 2.11734029,2.69247911 2.11734029,4.39220056 C2.11734029,6.10696379 3.00964798,7.11476323 4.53715776,7.11476323 C6.04954368,7.11476323 6.95697523,6.10696379 6.95697523,4.39220056 C6.94185137,2.69247911 6.04954368,1.66963788 4.53715776,1.66963788 Z" id="Shape"></path>
                <path d="M14.3374185,5.80612813 L14.3374185,8.64902507 L12.3410691,8.64902507 L12.3410691,0.120334262 L15.3658409,0.120334262 C17.7856584,0.120334262 18.8140808,1.33871866 18.8140808,2.90306407 C18.8140808,4.60278552 17.7402868,5.79108635 15.3658409,5.79108635 L14.3374185,5.80612813 L14.3374185,5.80612813 Z M14.3374185,4.30194986 L15.3658409,4.30194986 C16.3942634,4.30194986 16.8328553,3.79052925 16.8328553,2.90306407 C16.8328553,2.12089136 16.3791395,1.59442897 15.3658409,1.59442897 L14.3374185,1.59442897 L14.3374185,4.30194986 Z" id="Shape"></path>
                <polygon id="Path" points="27.8127771 0.120334262 27.8127771 1.63955432 24.2889179 1.63955432 24.2889179 3.62506964 26.9809648 3.62506964 26.9809648 5.08412256 24.2889179 5.08412256 24.2889179 7.11476323 27.8127771 7.11476323 27.8127771 8.63398329 22.2925684 8.63398329 22.2925684 0.105292479"></polygon>
                <path d="M33.5447197,0.421169916 L37.6130378,5.53537604 C37.5827901,5.20445682 37.5676662,4.90362117 37.5676662,4.6178273 L37.5676662,0.105292479 L39.3220339,0.105292479 L39.3220339,8.63398329 L38.2936115,8.63398329 C37.9911343,8.63398329 37.7945241,8.55877437 37.597914,8.30306407 L33.5598435,3.2189415 C33.5900913,3.51977716 33.6052151,3.80557103 33.6052151,4.06128134 L33.6052151,8.63398329 L31.8508475,8.63398329 L31.8508475,0.105292479 L32.8943937,0.105292479 C33.2271186,0.120334262 33.3178618,0.16545961 33.5447197,0.421169916 Z" id="Path"></path>
                <path d="M2.37444589,18.6367688 L2.69204694,18.6367688 C2.97940026,18.6367688 3.19113429,18.5465181 3.32724902,18.3660167 L5.263103,15.5832869 C5.47483703,15.2824513 5.73194263,15.1922006 6.12516297,15.1922006 L7.84928292,15.1922006 L5.30847458,18.6367688 C5.12698827,18.8924791 4.9303781,19.0428969 4.71864407,19.1481894 C5.02112125,19.2534819 5.263103,19.4339833 5.45971317,19.7498607 L8.04589309,23.7058496 L6.26127771,23.7058496 C5.80756193,23.7058496 5.64119948,23.5704735 5.48996089,23.3448468 L3.55410691,20.3816156 C3.41799218,20.1710306 3.22138201,20.0807799 2.84328553,20.0807799 L2.35932203,20.0807799 L2.35932203,23.7058496 L0.362972621,23.7058496 L0.362972621,15.1771588 L2.35932203,15.1771588 L2.35932203,18.6367688 L2.37444589,18.6367688 Z" id="Path"></path>
                <path d="M13.2333768,15.4779944 L17.3016949,20.5922006 C17.2714472,20.2612813 17.2563233,19.9604457 17.2563233,19.6746518 L17.2563233,15.162117 L19.010691,15.162117 L19.010691,23.6908078 L17.9822686,23.6908078 C17.6797914,23.6908078 17.4831812,23.6155989 17.2865711,23.3598886 L13.2485007,18.275766 C13.2787484,18.5766017 13.2938722,18.8623955 13.2938722,19.1181058 L13.2938722,23.6908078 L11.5395046,23.6908078 L11.5395046,15.162117 L12.5830508,15.162117 C12.9157757,15.1771588 13.0065189,15.2222841 13.2333768,15.4779944 Z" id="Path"></path>
                <path d="M27.2683181,23.7961003 C24.591395,23.7961003 22.8067797,21.9008357 22.8067797,19.4339833 C22.8067797,16.9671309 24.591395,15.0718663 27.2683181,15.0718663 C29.9301173,15.0718663 31.7147327,16.9671309 31.7147327,19.4339833 C31.7147327,21.9008357 29.9301173,23.7961003 27.2683181,23.7961003 Z M27.2683181,16.7114206 C25.7408083,16.7114206 24.8485007,17.7342618 24.8485007,19.4339833 C24.8485007,21.1487465 25.7408083,22.156546 27.2683181,22.156546 C28.780704,22.156546 29.6881356,21.1487465 29.6881356,19.4339833 C29.6730117,17.7493036 28.780704,16.7114206 27.2683181,16.7114206 Z" id="Shape"></path>
                <path d="M34.043807,15.1771588 L35.7074316,15.1771588 C36.0552803,15.1771588 36.2972621,15.3426184 36.3728814,15.5983287 L37.5525424,20.0506964 C37.6281617,20.3364903 37.7189048,20.6674095 37.7642764,21.0284123 C37.8398957,20.6523677 37.9457627,20.3364903 38.0365059,20.0506964 L39.4279009,15.5983287 C39.5035202,15.3877437 39.745502,15.1771588 40.0782269,15.1771588 L40.6680574,15.1771588 C41.0159061,15.1771588 41.242764,15.3426184 41.3335072,15.5983287 L42.7097784,20.0506964 C42.8005215,20.3214485 42.8912647,20.6373259 42.966884,20.9832869 C43.0273794,20.6373259 43.1029987,20.3214485 43.1634941,20.0506964 L44.3431551,15.5983287 C44.4036506,15.3727019 44.6607562,15.1771588 44.9934811,15.1771588 L46.5663625,15.1771588 L43.9196871,23.7058496 L42.1199478,23.7058496 L40.5016949,18.4261838 C40.4563233,18.2607242 40.380704,18.0651811 40.3353325,17.8395543 C40.2899609,18.0501393 40.2143416,18.2607242 40.16897,18.4261838 L38.5355932,23.7058496 L36.735854,23.7058496 L34.043807,15.1771588 Z" id="Path"></path>
                <polygon id="Path" points="52.1168188 22.1264624 55.2928292 22.1264624 55.2928292 23.7058496 50.1204694 23.7058496 50.1204694 15.1771588 52.1168188 15.1771588"></polygon>
                <polygon id="Path" points="65.0477184 15.1771588 65.0477184 16.6963788 61.5238592 16.6963788 61.5238592 18.6818942 64.2159061 18.6818942 64.2159061 20.1409471 61.5238592 20.1409471 61.5238592 22.1715877 65.0477184 22.1715877 65.0477184 23.6908078 59.5275098 23.6908078 59.5275098 15.162117 65.0477184 15.162117"></polygon>
                <path d="M72.5491525,23.7058496 L69.2219035,23.7058496 L69.2219035,15.1771588 L72.5491525,15.1771588 C75.2109518,15.1771588 76.9955671,16.9821727 76.9955671,19.4339833 C76.9955671,21.9008357 75.2109518,23.7058496 72.5491525,23.7058496 Z M72.5491525,16.6963788 L71.2182529,16.6963788 L71.2182529,22.1866295 L72.5491525,22.1866295 C74.0615385,22.1866295 74.96897,21.1487465 74.96897,19.4490251 C74.96897,17.7493036 74.0766623,16.6963788 72.5491525,16.6963788 Z" id="Shape"></path>
                <path d="M85.7522816,22.0211699 L85.7522816,20.7275766 L84.9053455,20.7275766 C84.6482399,20.7275766 84.5121252,20.5771588 84.5121252,20.3816156 L84.5121252,19.2986072 L87.5671447,19.2986072 L87.5671447,22.8935933 C86.6899609,23.5253482 85.6766623,23.8111421 84.2852673,23.8111421 C81.7747066,23.8111421 79.914472,21.945961 79.914472,19.4490251 C79.914472,16.9069638 81.6839635,15.0869081 84.4516297,15.0869081 C85.8883963,15.0869081 86.9470665,15.5832869 87.642764,16.2300836 L87.0680574,17.102507 C86.9621904,17.2679666 86.7958279,17.3732591 86.6143416,17.3732591 C86.4933507,17.3732591 86.3723598,17.3281337 86.251369,17.2529248 C85.6161669,16.8768802 85.177575,16.7264624 84.3760104,16.7264624 C82.8938722,16.7264624 81.956193,17.8094708 81.956193,19.4490251 C81.956193,21.254039 83.0148631,22.291922 84.4516297,22.291922 C84.9658409,22.2768802 85.3741851,22.1715877 85.7522816,22.0211699 Z" id="Path"></path>
                <polygon id="Path" points="97.2615385 15.1771588 97.2615385 16.6963788 93.7376793 16.6963788 93.7376793 18.6818942 96.4297262 18.6818942 96.4297262 20.1409471 93.7376793 20.1409471 93.7376793 22.1715877 97.2615385 22.1715877 97.2615385 23.6908078 91.7413299 23.6908078 91.7413299 15.162117 97.2615385 15.162117"></polygon>
                <polygon id="Path" points="5.91342894 30.2339833 5.91342894 31.7532033 2.38956975 31.7532033 2.38956975 33.9192201 5.32359844 33.9192201 5.32359844 35.4534819 2.38956975 35.4534819 2.38956975 38.7777159 0.393220339 38.7777159 0.393220339 30.2339833"></polygon>
                <path d="M17.4983051,34.4908078 C17.4983051,35.1075209 17.3924381,35.6791086 17.180704,36.205571 C16.96897,36.7320334 16.6664928,37.1983287 16.2732725,37.589415 C15.8800522,37.9805014 15.4112125,38.281337 14.8667536,38.5069638 C14.3222947,38.7325905 13.7173403,38.837883 13.0518905,38.837883 C12.3864407,38.837883 11.7814863,38.7325905 11.2219035,38.5069638 C10.6774446,38.281337 10.208605,37.9805014 9.81538462,37.589415 C9.42216428,37.1983287 9.11968709,36.7320334 8.90795306,36.205571 C8.69621904,35.6791086 8.59035202,35.1075209 8.59035202,34.4908078 C8.59035202,33.8740947 8.69621904,33.302507 8.90795306,32.7760446 C9.11968709,32.2495822 9.42216428,31.7832869 9.81538462,31.3922006 C10.208605,31.0011142 10.6774446,30.7002786 11.2219035,30.4746518 C11.7663625,30.2490251 12.3864407,30.1437326 13.0518905,30.1437326 C13.7173403,30.1437326 14.3222947,30.2490251 14.8667536,30.4746518 C15.4112125,30.7002786 15.8800522,31.0011142 16.2732725,31.3922006 C16.6664928,31.7832869 16.96897,32.2495822 17.180704,32.7760446 C17.3924381,33.302507 17.4983051,33.8740947 17.4983051,34.4908078 Z M15.471708,34.4908078 C15.471708,34.0696379 15.4112125,33.6935933 15.3053455,33.3476323 C15.1994785,33.0167131 15.033116,32.7309192 14.8365059,32.4902507 C14.6247718,32.2495822 14.3827901,32.0841226 14.0803129,31.9487465 C13.7778357,31.8284123 13.4451108,31.7682451 13.0670143,31.7682451 C12.6889179,31.7682451 12.3410691,31.8284123 12.0385919,31.9487465 C11.7361147,32.0690808 11.4790091,32.2495822 11.282399,32.4902507 C11.0706649,32.7309192 10.9194263,33.0167131 10.8135593,33.3476323 C10.7076923,33.6785515 10.6471969,34.0696379 10.6471969,34.4908078 C10.6471969,34.9119777 10.7076923,35.3030641 10.8135593,35.6339833 C10.9194263,35.9649025 11.0857888,36.2506964 11.282399,36.4913649 C11.494133,36.7320334 11.7361147,36.897493 12.0385919,37.0328691 C12.3410691,37.1532033 12.673794,37.2133705 13.0670143,37.2133705 C13.4451108,37.2133705 13.7929596,37.1532033 14.0803129,37.0328691 C14.3827901,36.9125348 14.6247718,36.7320334 14.8365059,36.4913649 C15.0482399,36.2506964 15.1994785,35.9649025 15.3053455,35.6339833 C15.4112125,35.3030641 15.471708,34.9119777 15.471708,34.4908078 Z" id="Shape"></path>
                <path d="M24.1225554,37.1983287 C24.3947849,37.1983287 24.6216428,37.1532033 24.8333768,37.0629526 C25.0451108,36.9727019 25.2265971,36.8523677 25.3627119,36.6869081 C25.5139505,36.5214485 25.6198175,36.3259053 25.6954368,36.0852368 C25.7710561,35.8445682 25.8164276,35.5738162 25.8164276,35.2880223 L25.8164276,30.2339833 L27.8127771,30.2339833 L27.8127771,35.2880223 C27.8127771,35.8144847 27.7220339,36.2958217 27.5556714,36.7320334 C27.389309,37.1682451 27.1473272,37.5442897 26.8297262,37.8601671 C26.5121252,38.1760446 26.1189048,38.4167131 25.665189,38.5972145 C25.2114733,38.7777159 24.6972621,38.8679666 24.1225554,38.8679666 C23.5478488,38.8679666 23.0336375,38.7777159 22.5799218,38.5972145 C22.126206,38.4167131 21.7329857,38.1760446 21.4153846,37.8601671 C21.0977836,37.5442897 20.8558018,37.1682451 20.6894394,36.7320334 C20.5230769,36.2958217 20.4323338,35.8144847 20.4323338,35.2880223 L20.4323338,30.2339833 L22.4286832,30.2339833 L22.4286832,35.2729805 C22.4286832,35.5738162 22.4740548,35.8445682 22.5496741,36.070195 C22.6252934,36.3108635 22.7311604,36.5064067 22.882399,36.6718663 C23.0336375,36.8373259 23.2,36.9576602 23.411734,37.0479109 C23.6083442,37.1532033 23.8503259,37.1983287 24.1225554,37.1983287 Z" id="Path"></path>
                <path d="M33.2573664,30.2490251 C33.3178618,30.2640669 33.3632334,30.2640669 33.4237288,30.2941504 C33.4691004,30.3091922 33.514472,30.3392758 33.5598435,30.3844011 C33.6052151,30.4295265 33.6505867,30.4746518 33.7110821,30.5498607 L37.7794003,35.6640669 C37.7642764,35.4986072 37.7491525,35.3481894 37.7491525,35.1827298 C37.7340287,35.032312 37.7340287,34.8818942 37.7340287,34.7465181 L37.7340287,30.2339833 L39.4883963,30.2339833 L39.4883963,38.7626741 L38.4599739,38.7626741 C38.3087353,38.7626741 38.1726206,38.7325905 38.0667536,38.6874652 C37.9608866,38.6423398 37.8550196,38.5520891 37.7642764,38.4317549 L33.726206,33.3476323 C33.7413299,33.4980501 33.7413299,33.648468 33.7564537,33.783844 C33.7715776,33.9192201 33.7715776,34.0545961 33.7715776,34.1899721 L33.7715776,38.7626741 L32.0172099,38.7626741 L32.0172099,30.2339833 L33.0607562,30.2339833 C33.1212516,30.2339833 33.1968709,30.2339833 33.2573664,30.2490251 Z" id="Path"></path>
                <path d="M51.557236,34.4908078 C51.557236,35.1075209 51.451369,35.6791086 51.2396349,36.1905292 C51.0279009,36.7169916 50.7254237,37.1682451 50.3322034,37.5442897 C49.9389831,37.9203343 49.4701434,38.2211699 48.9256845,38.4317549 C48.3812256,38.6423398 47.7762712,38.7476323 47.1108214,38.7476323 L43.7835724,38.7476323 L43.7835724,30.2339833 L47.1108214,30.2339833 C47.7762712,30.2339833 48.3812256,30.3392758 48.9256845,30.5498607 C49.4701434,30.7604457 49.9389831,31.0612813 50.3322034,31.4373259 C50.7254237,31.8133705 51.0279009,32.264624 51.2396349,32.7910864 C51.451369,33.3175487 51.557236,33.8740947 51.557236,34.4908078 Z M49.5306389,34.4908078 C49.5306389,34.0696379 49.4701434,33.6935933 49.3642764,33.3476323 C49.2584094,33.0016713 49.0920469,32.7158774 48.8954368,32.4902507 C48.6837027,32.2495822 48.441721,32.0690808 48.1392438,31.9487465 C47.8367666,31.8284123 47.5040417,31.7532033 47.1259452,31.7532033 L45.7950456,31.7532033 L45.7950456,37.243454 L47.1259452,37.243454 C47.5040417,37.243454 47.8518905,37.1832869 48.1392438,37.0479109 C48.441721,36.9275766 48.6837027,36.7470752 48.8954368,36.5064067 C49.1071708,36.2657382 49.2584094,35.9799443 49.3642764,35.6490251 C49.4701434,35.3030641 49.5306389,34.9119777 49.5306389,34.4908078 Z" id="Shape"></path>
                <path d="M62.7488918,38.7626741 L61.2062581,38.7626741 C61.0398957,38.7626741 60.8886571,38.7175487 60.7827901,38.6423398 C60.6769231,38.5671309 60.5861799,38.4618384 60.5559322,38.3415042 L60.0568449,36.8523677 L56.7900913,36.8523677 L56.2910039,38.3415042 C56.2456323,38.4467967 56.170013,38.5520891 56.064146,38.6423398 C55.9431551,38.7325905 55.8070404,38.7777159 55.640678,38.7777159 L54.0829205,38.7777159 L57.3950456,30.2490251 L59.4367666,30.2490251 L62.7488918,38.7626741 Z M57.243807,35.4986072 L59.5880052,35.4986072 L58.8015645,33.1671309 C58.756193,33.0167131 58.6956975,32.8512535 58.6200782,32.6406685 C58.5444589,32.4451253 58.4839635,32.2194986 58.4234681,31.9938719 C58.3629726,32.2345404 58.3024772,32.4451253 58.2268579,32.6557103 C58.1663625,32.8512535 58.0907432,33.0317549 58.0453716,33.1821727 L57.243807,35.4986072 Z" id="Shape"></path>
                <polygon id="Path" points="71.9290743 30.2339833 71.9290743 31.7983287 69.5092568 31.7983287 69.5092568 38.7626741 67.5129074 38.7626741 67.5129074 31.7983287 65.09309 31.7983287 65.09309 30.2339833"></polygon>
                <polygon id="Path" points="77.6610169 38.7626741 75.6646675 38.7626741 75.6646675 30.2339833 77.6610169 30.2339833"></polygon>
                <path d="M90.2894394,34.4908078 C90.2894394,35.1075209 90.1835724,35.6791086 89.9718383,36.205571 C89.7601043,36.7320334 89.4576271,37.1983287 89.0644068,37.589415 C88.6711864,37.9805014 88.2023468,38.281337 87.6578879,38.5069638 C87.1134289,38.7325905 86.5084746,38.837883 85.8430248,38.837883 C85.177575,38.837883 84.5726206,38.7325905 84.0130378,38.5069638 C83.4685789,38.281337 82.9997392,37.9805014 82.6065189,37.589415 C82.2132986,37.1983287 81.9108214,36.7320334 81.6990874,36.205571 C81.4873533,35.6791086 81.3814863,35.1075209 81.3814863,34.4908078 C81.3814863,33.8740947 81.4873533,33.302507 81.6990874,32.7760446 C81.9108214,32.2495822 82.2132986,31.7832869 82.6065189,31.3922006 C82.9997392,31.0011142 83.4685789,30.7002786 84.0130378,30.4746518 C84.5574967,30.2490251 85.177575,30.1437326 85.8430248,30.1437326 C86.5084746,30.1437326 87.1134289,30.2490251 87.6578879,30.4746518 C88.2023468,30.7002786 88.6711864,31.0011142 89.0644068,31.3922006 C89.4576271,31.7832869 89.7601043,32.2495822 89.9718383,32.7760446 C90.1835724,33.302507 90.2894394,33.8740947 90.2894394,34.4908078 Z M88.2628422,34.4908078 C88.2628422,34.0696379 88.2023468,33.6935933 88.0964798,33.3476323 C87.9906128,33.0167131 87.8242503,32.7309192 87.6276402,32.4902507 C87.4159061,32.2495822 87.1739244,32.0841226 86.8714472,31.9487465 C86.56897,31.8284123 86.2362451,31.7682451 85.8581486,31.7682451 C85.4800522,31.7682451 85.1322034,31.8284123 84.8297262,31.9487465 C84.527249,32.0690808 84.2701434,32.2495822 84.0735332,32.4902507 C83.8617992,32.7309192 83.7105606,33.0167131 83.6046936,33.3476323 C83.4988266,33.6785515 83.4383312,34.0696379 83.4383312,34.4908078 C83.4383312,34.9119777 83.4988266,35.3030641 83.6046936,35.6339833 C83.7105606,35.9649025 83.8769231,36.2506964 84.0735332,36.4913649 C84.2852673,36.7320334 84.527249,36.897493 84.8297262,37.0328691 C85.1322034,37.1532033 85.4649283,37.2133705 85.8581486,37.2133705 C86.2362451,37.2133705 86.5840939,37.1532033 86.8714472,37.0328691 C87.1739244,36.9125348 87.4159061,36.7320334 87.6276402,36.4913649 C87.8393742,36.2506964 87.9906128,35.9649025 88.0964798,35.6339833 C88.2023468,35.3030641 88.2628422,34.9119777 88.2628422,34.4908078 Z" id="Shape"></path>
                <path d="M95.4013038,30.2490251 C95.4617992,30.2640669 95.5071708,30.2640669 95.5676662,30.2941504 C95.6130378,30.3091922 95.6584094,30.3392758 95.703781,30.3844011 C95.7491525,30.4295265 95.7945241,30.4746518 95.8550196,30.5498607 L99.9233377,35.6640669 C99.9082138,35.4986072 99.89309,35.3481894 99.89309,35.1827298 C99.8779661,35.032312 99.8779661,34.8818942 99.8779661,34.7465181 L99.8779661,30.2339833 L101.632334,30.2339833 L101.632334,38.7626741 L100.603911,38.7626741 C100.452673,38.7626741 100.316558,38.7325905 100.210691,38.6874652 C100.104824,38.6423398 99.998957,38.5520891 99.9082138,38.4317549 L95.8701434,33.3476323 C95.8852673,33.4980501 95.8852673,33.648468 95.9003911,33.783844 C95.915515,33.9192201 95.915515,34.0545961 95.915515,34.1899721 L95.915515,38.7626741 L94.1611473,38.7626741 L94.1611473,30.2339833 L95.2046936,30.2339833 C95.265189,30.2339833 95.3408083,30.2339833 95.4013038,30.2490251 Z" id="Path"></path>
                <path d="M7.4863103,49.5476323 C7.4863103,50.1793872 7.38044329,50.7660167 7.18383312,51.2924791 C6.98722295,51.8189415 6.69986962,52.270195 6.32177314,52.6311978 C5.94367666,53.0072423 5.50508475,53.2930362 4.99087353,53.5036212 C4.47666232,53.7142061 3.90195567,53.8044568 3.26675359,53.8044568 L0.0604954368,53.8044568 L0.0604954368,45.2908078 L3.26675359,45.2908078 C3.90195567,45.2908078 4.47666232,45.3961003 4.99087353,45.5916435 C5.50508475,45.8022284 5.95880052,46.0880223 6.32177314,46.4640669 C6.68474576,46.8401114 6.97209909,47.2913649 7.18383312,47.8178273 C7.39556714,48.3292479 7.4863103,48.9158774 7.4863103,49.5476323 Z M6.30664928,49.5476323 C6.30664928,49.0211699 6.23102999,48.5548747 6.09491525,48.1487465 C5.95880052,47.7426184 5.74706649,47.3816156 5.48996089,47.0958217 C5.23285528,46.8100279 4.91525424,46.5994429 4.53715776,46.4490251 C4.15906128,46.2986072 3.75071708,46.2233983 3.28187744,46.2233983 L1.24015645,46.2233983 L1.24015645,52.8718663 L3.28187744,52.8718663 C3.73559322,52.8718663 4.15906128,52.7966574 4.53715776,52.6462396 C4.91525424,52.4958217 5.23285528,52.2852368 5.48996089,51.9994429 C5.74706649,51.713649 5.95880052,51.367688 6.09491525,50.9615599 C6.23102999,50.54039 6.30664928,50.0740947 6.30664928,49.5476323 Z" id="Shape"></path>
                <polygon id="Path" points="16.1371578 45.2908078 16.1371578 46.2233983 12.0234681 46.2233983 12.0234681 49.0512535 15.3507171 49.0512535 15.3507171 49.9537604 12.0234681 49.9537604 12.0234681 52.8568245 16.1371578 52.8568245 16.1371578 53.789415 10.8589309 53.789415 10.8589309 45.275766 16.1371578 45.275766"></polygon>
                <path d="M24.0318123,52.8869081 C24.379661,52.8869081 24.6972621,52.8267409 24.9846154,52.7064067 C25.2568449,52.5860724 25.4988266,52.4206128 25.6954368,52.2100279 C25.8920469,51.9994429 26.0432855,51.7437326 26.1340287,51.4428969 C26.2398957,51.1420613 26.2852673,50.8261838 26.2852673,50.4651811 L26.2852673,45.2908078 L27.4346806,45.2908078 L27.4346806,50.4651811 C27.4346806,50.9615599 27.3590613,51.4128134 27.1926988,51.8339833 C27.0414602,52.2551532 26.8146023,52.616156 26.5121252,52.9320334 C26.2247718,53.2328691 25.8617992,53.4735376 25.4383312,53.654039 C25.0148631,53.8345404 24.5460235,53.9097493 24.0166884,53.9097493 C23.4873533,53.9097493 23.0185137,53.8194986 22.5950456,53.654039 C22.1715776,53.4735376 21.808605,53.2328691 21.5212516,52.9320334 C21.2338983,52.6311978 21.0070404,52.2551532 20.840678,51.8339833 C20.6894394,51.4128134 20.5986962,50.9615599 20.5986962,50.4651811 L20.5986962,45.2908078 L21.7481095,45.2908078 L21.7481095,50.4651811 C21.7481095,50.8261838 21.7934811,51.1420613 21.8993481,51.4428969 C22.0052151,51.7437326 22.1413299,51.9994429 22.33794,52.2100279 C22.5345502,52.4206128 22.7614081,52.5860724 23.0487614,52.7064067 C23.3663625,52.8267409 23.6839635,52.8869081 24.0318123,52.8869081 Z" id="Path"></path>
                <polygon id="Path" points="38.3238592 45.2908078 38.3238592 46.2534819 35.556193 46.2534819 35.556193 53.8044568 34.3916558 53.8044568 34.3916558 46.2534819 31.6088657 46.2534819 31.6088657 45.2908078 38.3238592 45.2908078"></polygon>
                <path d="M47.156193,46.6144847 C47.1259452,46.6746518 47.0805737,46.7197772 47.0352021,46.7498607 C46.9898305,46.7799443 46.9444589,46.7949861 46.8839635,46.7949861 C46.8234681,46.7949861 46.7327249,46.7649025 46.6419817,46.6896936 C46.5512386,46.6295265 46.4453716,46.5543175 46.294133,46.4640669 C46.1580183,46.3888579 45.9916558,46.313649 45.7950456,46.2384401 C45.5984355,46.178273 45.3715776,46.1331476 45.0993481,46.1331476 C44.8422425,46.1331476 44.6153846,46.1632312 44.4187744,46.2384401 C44.2221643,46.313649 44.0558018,46.4038997 43.9196871,46.524234 C43.7835724,46.6445682 43.6928292,46.7799443 43.6172099,46.9454039 C43.5567145,47.1108635 43.5113429,47.2763231 43.5113429,47.4718663 C43.5113429,47.7125348 43.5718383,47.908078 43.6928292,48.0584958 C43.8138201,48.2089136 43.9650587,48.3442897 44.1616688,48.464624 C44.358279,48.5699164 44.570013,48.6752089 44.8119948,48.7504178 C45.0539765,48.8256267 45.3110821,48.9158774 45.5681877,49.0061281 C45.8252934,49.0963788 46.082399,49.1866295 46.3243807,49.3069638 C46.5663625,49.4122563 46.7932203,49.5476323 46.9747066,49.7130919 C47.1713168,49.8785515 47.3225554,50.0891365 47.4435463,50.329805 C47.5645372,50.5704735 47.6250326,50.8713092 47.6250326,51.2172702 C47.6250326,51.5933148 47.5645372,51.9392758 47.4284224,52.270195 C47.3074316,52.6011142 47.1108214,52.8869081 46.8688396,53.1275766 C46.6268579,53.3682451 46.3243807,53.5637883 45.9614081,53.6991643 C45.5984355,53.8345404 45.2052151,53.9097493 44.7514993,53.9097493 C44.1919166,53.9097493 43.6928292,53.8044568 43.2391134,53.6089136 C42.7853977,53.4133705 42.3921773,53.1426184 42.0745763,52.7966574 L42.4073012,52.2551532 C42.4375489,52.2100279 42.4829205,52.1799443 42.528292,52.1498607 C42.5736636,52.1197772 42.6190352,52.1047354 42.6795306,52.1047354 C42.7702738,52.1047354 42.8610169,52.1498607 42.966884,52.2401114 C43.072751,52.3303621 43.2088657,52.4206128 43.3752282,52.5409471 C43.5415906,52.6462396 43.7382008,52.751532 43.9650587,52.8417827 C44.1919166,52.9320334 44.4792699,52.9771588 44.8119948,52.9771588 C45.0842243,52.9771588 45.326206,52.9320334 45.5530639,52.8568245 C45.7647979,52.7816156 45.9462842,52.6763231 46.0975228,52.5409471 C46.2487614,52.405571 46.3546284,52.2401114 46.4453716,52.0445682 C46.5209909,51.8490251 46.5663625,51.6384401 46.5663625,51.4128134 C46.5663625,51.1571031 46.505867,50.9465181 46.3848761,50.7810585 C46.2638853,50.6155989 46.1126467,50.4802228 45.9160365,50.3749304 C45.7194263,50.2696379 45.5076923,50.1643454 45.2657106,50.0891365 C45.0237288,50.0139276 44.7666232,49.9387187 44.5095176,49.848468 C44.252412,49.7732591 43.9953064,49.6679666 43.7533246,49.5626741 C43.5113429,49.4573816 43.284485,49.3220056 43.1029987,49.1415042 C42.9063885,48.9760446 42.7551499,48.7654596 42.6341591,48.5097493 C42.5131682,48.254039 42.4526728,47.9381616 42.4526728,47.562117 C42.4526728,47.2612813 42.5131682,46.9754875 42.6341591,46.6896936 C42.7551499,46.4038997 42.9215124,46.1632312 43.1483703,45.9376045 C43.3752282,45.7270195 43.6474576,45.5465181 43.9801825,45.4111421 C44.3129074,45.275766 44.6910039,45.2155989 45.114472,45.2155989 C45.5984355,45.2155989 46.0219035,45.2908078 46.4302477,45.4412256 C46.8234681,45.5916435 47.1713168,45.8172702 47.4586701,46.0880223 L47.156193,46.6144847 Z" id="Path"></path>
                <path d="M58.3629726,52.0445682 C58.4234681,52.0445682 58.4839635,52.0746518 58.5293351,52.1197772 L58.9830508,52.616156 C58.6352021,53.0222841 58.211734,53.3381616 57.7126467,53.5637883 C57.2135593,53.789415 56.608605,53.9097493 55.8977836,53.9097493 C55.2777053,53.9097493 54.7181226,53.8044568 54.2190352,53.5938719 C53.7199478,53.3832869 53.2813559,53.0824513 52.9335072,52.7064067 C52.5856584,52.3303621 52.2983051,51.8640669 52.1016949,51.3376045 C51.9050847,50.7961003 51.8143416,50.2094708 51.8143416,49.5777159 C51.8143416,48.9309192 51.9202086,48.3442897 52.1319426,47.8178273 C52.3436767,47.2763231 52.63103,46.8250696 53.0091265,46.4339833 C53.3872229,46.0428969 53.8409387,45.7571031 54.3702738,45.5465181 C54.8996089,45.3359331 55.4743155,45.2306407 56.1246415,45.2306407 C56.7598435,45.2306407 57.3043025,45.3208914 57.7580183,45.5164345 C58.211734,45.7119777 58.6200782,45.967688 58.967927,46.313649 L58.5898305,46.8401114 C58.5595828,46.8852368 58.5293351,46.9153203 58.4990874,46.9454039 C58.4688396,46.9754875 58.4083442,46.9905292 58.3478488,46.9905292 C58.3024772,46.9905292 58.2419817,46.9754875 58.1814863,46.9303621 C58.1209909,46.8852368 58.0604954,46.8401114 57.9697523,46.7949861 C57.894133,46.7348189 57.8033898,46.6746518 57.682399,46.6144847 C57.5765319,46.5543175 57.4404172,46.4941504 57.3043025,46.4339833 C57.1681877,46.3738162 56.9867014,46.3286908 56.7900913,46.2986072 C56.5934811,46.2534819 56.3666232,46.2384401 56.1095176,46.2384401 C55.6558018,46.2384401 55.2323338,46.313649 54.8542373,46.4791086 C54.4761408,46.6295265 54.1434159,46.8551532 53.8711864,47.1409471 C53.598957,47.4267409 53.3872229,47.7877437 53.2359844,48.1938719 C53.0847458,48.6150418 53.0091265,49.081337 53.0091265,49.5927577 C53.0091265,50.1192201 53.0847458,50.6005571 53.2359844,51.0066852 C53.3872229,51.4278552 53.598957,51.7738162 53.8560626,52.05961 C54.128292,52.3454039 54.4307692,52.5710306 54.7937419,52.7214485 C55.1567145,52.8718663 55.5499348,52.9470752 55.958279,52.9470752 C56.2153846,52.9470752 56.4422425,52.9320334 56.6388527,52.9019499 C56.8354628,52.8718663 57.032073,52.8267409 57.1984355,52.7665738 C57.3647979,52.7064067 57.5311604,52.616156 57.682399,52.5259053 C57.8336375,52.4356546 57.9848761,52.3153203 58.1361147,52.1799443 C58.2268579,52.0746518 58.2873533,52.0445682 58.3629726,52.0445682 Z" id="Path"></path>
                <polygon id="Path" points="70.356193 53.8044568 69.1916558 53.8044568 69.1916558 49.9236769 64.5788787 49.9236769 64.5788787 53.8044568 63.4143416 53.8044568 63.4143416 45.2908078 64.5788787 45.2908078 64.5788787 49.0963788 69.1916558 49.0963788 69.1916558 45.2908078 70.356193 45.2908078"></polygon>
                <polygon id="Path" points="76.9804433 52.8417827 80.6857888 52.8417827 80.6857888 53.8044568 75.8159061 53.8044568 75.8159061 45.2908078 76.9804433 45.2908078"></polygon>
                <path d="M92.2404172,53.8044568 L91.3481095,53.8044568 C91.2422425,53.8044568 91.1666232,53.7743733 91.0910039,53.7292479 C91.0305085,53.6841226 90.9851369,53.6089136 90.9548892,53.5337047 L90.1533246,51.4729805 L86.3118644,51.4729805 L85.5102999,53.5337047 C85.4800522,53.6089136 85.4346806,53.6690808 85.3741851,53.7292479 C85.3136897,53.789415 85.2229465,53.8194986 85.1170795,53.8194986 L84.2247718,53.8194986 L87.642764,45.3058496 L88.822425,45.3058496 L92.2404172,53.8044568 Z M86.6294654,50.6456825 L89.8205997,50.6456825 L88.4745763,47.1860724 C88.3838331,46.9754875 88.3082138,46.7047354 88.2174707,46.3888579 C88.1720991,46.5543175 88.1267275,46.7047354 88.0813559,46.8401114 C88.0359844,46.9754875 88.0057366,47.0958217 87.9603651,47.2011142 L86.6294654,50.6456825 Z" id="Shape"></path>
                <path d="M97.3674055,45.3208914 C97.4127771,45.3509749 97.4732725,45.3961003 97.5337679,45.4713092 L102.494394,51.8941504 C102.47927,51.7888579 102.47927,51.6986072 102.464146,51.5933148 C102.464146,51.5030641 102.464146,51.3977716 102.464146,51.3075209 L102.464146,45.275766 L103.477445,45.275766 L103.477445,53.789415 L102.887614,53.789415 C102.796871,53.789415 102.721252,53.7743733 102.660756,53.7442897 C102.600261,53.7142061 102.539765,53.654039 102.47927,53.5788301 L97.5186441,47.1710306 C97.5337679,47.2763231 97.5337679,47.3665738 97.5337679,47.4568245 C97.5337679,47.5470752 97.5337679,47.6373259 97.5337679,47.7125348 L97.5337679,53.789415 L96.5204694,53.789415 L96.5204694,45.275766 L97.1254237,45.275766 C97.2464146,45.2908078 97.3220339,45.2908078 97.3674055,45.3208914 Z" id="Path"></path>
                <path d="M115.894133,49.5476323 C115.894133,50.1793872 115.788266,50.7660167 115.591656,51.2924791 C115.395046,51.8189415 115.107692,52.270195 114.729596,52.6311978 C114.351499,53.0072423 113.912907,53.2930362 113.398696,53.5036212 C112.884485,53.7142061 112.309778,53.8044568 111.674576,53.8044568 L108.468318,53.8044568 L108.468318,45.2908078 L111.674576,45.2908078 C112.309778,45.2908078 112.884485,45.3961003 113.398696,45.5916435 C113.912907,45.8022284 114.366623,46.0880223 114.729596,46.4640669 C115.107692,46.8401114 115.379922,47.2913649 115.591656,47.8178273 C115.80339,48.3292479 115.894133,48.9158774 115.894133,49.5476323 Z M114.714472,49.5476323 C114.714472,49.0211699 114.638853,48.5548747 114.502738,48.1487465 C114.366623,47.7426184 114.154889,47.3816156 113.897784,47.0958217 C113.640678,46.8100279 113.323077,46.5994429 112.94498,46.4490251 C112.566884,46.2986072 112.15854,46.2233983 111.6897,46.2233983 L109.647979,46.2233983 L109.647979,52.8718663 L111.6897,52.8718663 C112.143416,52.8718663 112.566884,52.7966574 112.94498,52.6462396 C113.323077,52.4958217 113.640678,52.2852368 113.897784,51.9994429 C114.154889,51.713649 114.366623,51.367688 114.502738,50.9615599 C114.638853,50.54039 114.714472,50.0740947 114.714472,49.5476323 Z" id="Shape"></path>
            </g>
            <polygon id="Path" fill="#000000" points="69 49.2114804 68.8943396 46.8851964 61.845283 47.2175227 68.7132075 45.6314199 68.2 43.3655589 61.3169811 44.9516616 67.7924528 42.1722054 66.8716981 40.0271903 60.4113208 42.8217523 66.2830189 38.9244713 64.9849057 36.9758308 59.1132075 40.8882175 64.2 35.9939577 62.5849057 34.3172205 57.5132075 39.2114804 61.6339623 33.4864048 59.7471698 32.1268882 55.6264151 37.836858 58.6603774 31.4773414 56.5622642 30.4803625 53.5283019 36.8398792 55.3849057 30.0271903 53.1358491 29.4229607 51.2792453 36.2205438 51.8981132 29.1963746 49.5886792 29 48.9396226 36.265861 48.245283 29 45.9358491 29.2265861 46.6 36.2507553 44.6981132 29.4531722 42.4490566 30.0876133 44.3660377 36.8851964 41.2716981 30.5407855 39.1886792 31.5679758 42.2830189 37.897281 38.1018868 32.2175227 36.2301887 33.592145 40.4113208 39.2719033 35.2792453 34.4229607 33.6943396 36.1148036 38.8113208 40.9637462 32.909434 37.1117825 31.6415094 39.060423 37.5433962 42.9123867 31.0377358 40.1782477 30.1471698 42.3232628 36.6377358 45.0574018 29.754717 43.5317221 29.2566038 45.7975831 36.1245283 47.3232628 29.090566 47.0513595 29 49.3776435 36.0339623 49.6495468 29.0603774 50.6314199 29.3773585 52.9425982 36.3660377 51.9607251 29.6641509 54.1661631 30.4037736 56.3867069 37.090566 54.1661631 30.9018868 57.5347432 32.0037736 59.5891239 38.2075472 56.2205438 32.7132075 60.6314199 34.1622642 62.4441088 39.6566038 58.0181269 35.0528302 63.3655589 36.8037736 64.8761329 41.4226415 59.5438066 37.8301887 65.6163142 39.8226415 66.8096677 43.4150943 60.7371601 40.9698113 67.3534743 43.1433962 68.1540785 45.6037736 61.5377644 44.3660377 68.4864048 46.6603774 68.8942598 47.8830189 61.9456193 47.9132075 69 50.2377358 68.9848943 50.2075472 61.9305136 51.5056604 68.8791541 53.7849057 68.4410876 52.5018868 61.5075529 55.0075472 68.1087613 57.1811321 67.2779456 54.6754717 60.6918429 58.3132075 66.734139 60.3056604 65.5256798 56.6679245 59.4833837 61.3169811 64.7854985 63.0679245 63.244713 58.4037736 57.9425982 63.9283019 62.3232628 65.3773585 60.4954683 59.8528302 56.1148036 66.0716981 59.4380665 67.1584906 57.3987915 60.954717 54.0755287 67.6566038 56.2205438 68.3660377 54.0151057 61.6490566 51.8549849 68.6528302 52.776435 68.954717 50.4652568 61.9660377 49.5438066"></polygon>
            <g id="Group" fill="#000000">
                <polygon id="Path" points="81.2 51.5781538 97.9247312 53.8246154 97.5032258 56.9756923 80.7784946 54.7141538"></polygon>
                <polygon id="Rectangle" transform="translate(75.531490, 12.110961) rotate(-54.232536) translate(-75.531490, -12.110961) " points="62.430071 10.5390269 88.6352147 10.5199263 88.6329081 13.6828943 62.4277644 13.701995"></polygon>
                <polygon id="Rectangle" transform="translate(65.627025, 14.096787) rotate(-64.518918) translate(-65.627025, -14.096787) " points="59.312726 12.5195086 71.9432123 12.5119716 71.9413235 15.6740661 59.3108372 15.6816032"></polygon>
                <polygon id="Rectangle" transform="translate(59.855203, 9.101960) rotate(-74.804683) translate(-59.855203, -9.101960) " points="50.8561981 7.52470664 68.8554372 7.51771228 68.854207 10.6792125 50.854968 10.6862069"></polygon>
                <polygon id="Path" points="53.3956989 16.9464615 50.2344086 16.6449231 51.3182796 4.05569231 54.4645161 4.32707692"></polygon>
                <polygon id="Path" points="44.4688172 16.9464615 43.144086 2.86461538 46.2903226 2.56307692 47.6150538 16.6449231"></polygon>
                <polygon id="Path" points="38.8387097 18.2732308 36.2193548 8.95569231 39.2752688 8.09630769 41.8795699 17.4289231"></polygon>
                <polygon id="Rectangle" transform="translate(33.539331, 16.981388) rotate(-25.957752) translate(-33.539331, -16.981388) " points="31.9602141 13.7342858 35.1223763 13.7323718 35.118448 20.2284902 31.9562858 20.2304042"></polygon>
                <polygon id="Path" points="28.7376344 23.8215385 27.2322581 21.7710769 29.7913978 19.9015385 31.2817204 21.952"></polygon>
                <polygon id="Path" points="24.5827957 27.8621538 17.0408602 20.7006154 19.2236559 18.3938462 26.7655914 25.5553846"></polygon>
                <polygon id="Path" points="21.2258065 32.5661538 9.60430108 24.892 11.3354839 22.2384615 22.9569892 29.9276923"></polygon>
                <polygon id="Path" points="18.7569892 37.8129231 11.4709677 34.7221538 12.7053763 31.8123077 19.9913978 34.888"></polygon>
                <polygon id="Path" points="6.17204301 45.5926154 16.9204301 46.0147692 16.7849462 49.1809231 6.03655914 48.7587692"></polygon>
                <polygon id="Rectangle" transform="translate(13.971311, 53.824244) rotate(-7.943736) translate(-13.971311, -53.824244) " points="10.7801655 52.2418929 17.1631213 52.2405488 17.1624556 55.4065961 10.7794998 55.4079402"></polygon>
                <polygon id="Rectangle" transform="translate(16.718844, 59.587122) rotate(-18.239277) translate(-16.718844, -59.587122) " points="14.9052339 58.0050429 18.5338992 58.0033836 18.5324534 61.169202 14.9037881 61.1708612"></polygon>
                <polygon id="Rectangle" transform="translate(14.962544, 67.452951) rotate(-28.515349) translate(-14.962544, -67.452951) " points="8.39774132 65.8746445 21.5293862 65.8661728 21.527346 69.031257 8.39570114 69.0397286"></polygon>
                <polygon id="Rectangle" transform="translate(18.411986, 73.579243) rotate(-38.805658) translate(-18.411986, -73.579243) " points="11.3334122 72.0023883 25.4929341 71.9917564 25.4905589 75.1560973 11.331037 75.1667292"></polygon>
                <polygon id="Rectangle" transform="translate(23.424866, 78.517935) rotate(-49.103513) translate(-23.424866, -78.517935) " points="16.5253271 76.9414832 30.3268123 76.9309846 30.3244054 80.0943863 16.5229202 80.1048848"></polygon>
                <polygon id="Rectangle" transform="translate(30.991713, 79.417615) rotate(-59.388036) translate(-30.991713, -79.417615) " points="27.8054116 77.8385519 34.1801452 77.8342587 34.1780138 80.9966789 27.8032802 81.0009721"></polygon>
                <polygon id="Path" points="35.0150538 91.3661538 32.0494624 90.2655385 36.3548387 78.6261538 39.3204301 79.7267692"></polygon>
                <polygon id="Rectangle" transform="translate(42.418642, 86.305892) rotate(-79.950866) translate(-42.418642, -86.305892) " points="36.7200093 84.7266105 48.1181107 84.7236021 48.117275 87.8851738 36.7191736 87.8881822"></polygon>
                <polygon id="Path" points="50.7763441 89.1046154 47.6150538 89.1196923 47.5849462 81.2043077 50.7462366 81.1892308"></polygon>
                <polygon id="Path" points="56.1505376 96.0098462 53.3655914 80.948 56.4666667 80.36 59.2666667 95.4218462"></polygon>
                <polygon id="Rectangle" transform="translate(62.131195, 83.421404) rotate(-20.810861) translate(-62.131195, -83.421404) " points="60.5525334 78.7942874 63.7145786 78.7926721 63.7098558 88.0485204 60.5478107 88.0501357"></polygon>
                <polygon id="Path" points="64.3096774 77.3898462 76.8795699 98 79.5892473 96.3566154 67.0193548 75.7464615"></polygon>
                <polygon id="Path" points="70.9935484 76.0329231 69.2021505 74.2689231 71.4602151 72.0375385 73.2365591 73.8015385"></polygon>
                <polygon id="Path" points="81.3204301 76.5304615 73.3268817 70.1981538 75.283871 67.7104615 83.2924731 74.0427692"></polygon>
                <polygon id="Path" points="84.8580645 69.8513846 76.7290323 65.5092308 78.2193548 62.72 86.3483871 67.0470769"></polygon>
                <polygon id="Path" points="83.1569892 61.544 79.2430108 60.2926154 80.2064516 57.2772308 84.1204301 58.5286154"></polygon>
                <polygon id="Path" points="81.3053763 48.9396923 81.1397849 45.7735385 88.9677419 45.3966154 89.1182796 48.5627692"></polygon>
                <polygon id="Rectangle" transform="translate(85.243444, 40.514715) rotate(-13.096825) translate(-85.243444, -40.514715) " points="80.2983704 38.9334236 90.1895908 38.9300654 90.1885174 42.0960068 80.297297 42.0993651"></polygon>
                <polygon id="Path" points="79.2580645 37.5867692 77.9935484 34.6769231 84.1956989 31.9932308 85.4451613 34.9030769"></polygon>
                <polygon id="Path" points="76.744086 32.3701538 74.9978495 29.7316923 91.316129 18.8310769 93.0774194 21.4695385"></polygon>
                <polygon id="Path" points="73.3419355 27.6812308 71.1591398 25.4046154 73.6129032 23.0224615 75.7956989 25.3141538"></polygon>
                <polygon id="Path" points="0.0752688172 39.5467692 17.2666667 43.4064615 17.9591398 40.3156923 0.782795699 36.456"></polygon>
            </g>
            <g id="Group" transform="translate(40.000000, 44.000000)" fill="#FFFFFF">
                <path d="M9.56440678,3.3 C9.28983051,2.63380282 8.90847458,2.04507042 8.42033898,1.56478873 C7.93220339,1.06901408 7.33728814,0.697183099 6.65084746,0.418309859 C5.96440678,0.13943662 5.18644068,1.42108547e-14 4.34745763,1.42108547e-14 L0.137288136,1.42108547e-14 L0.137288136,11 L4.34745763,11 C5.18644068,11 5.96440678,10.8605634 6.65084746,10.5816901 C7.33728814,10.3028169 7.93220339,9.93098592 8.42033898,9.43521127 C8.90847458,8.93943662 9.28983051,8.36619718 9.56440678,7.68450704 C9.83898305,7.0028169 9.97627119,6.27464789 9.97627119,5.48450704 C9.96101695,4.6943662 9.82372881,3.96619718 9.56440678,3.3 Z M7.18474576,6.97183099 C7.04745763,7.4056338 6.84915254,7.77746479 6.58983051,8.08732394 C6.33050847,8.3971831 6.01016949,8.62957746 5.62881356,8.78450704 C5.24745763,8.95492958 4.82033898,9.03239437 4.34745763,9.03239437 L2.66949153,9.03239437 L2.66949153,1.95211268 L4.34745763,1.95211268 C4.83559322,1.95211268 5.26271186,2.02957746 5.62881356,2.2 C6.01016949,2.37042254 6.33050847,2.6028169 6.58983051,2.8971831 C6.84915254,3.20704225 7.04745763,3.57887324 7.18474576,4.01267606 C7.3220339,4.44647887 7.39830508,4.94225352 7.39830508,5.48450704 C7.39830508,6.04225352 7.3220339,6.53802817 7.18474576,6.97183099 Z" id="Shape"></path>
                <polygon id="Path" points="17.8932203 1.95211268 17.8932203 0 10.9067797 0 10.9067797 11 17.8932203 11 17.8932203 9.03239437 13.4389831 9.03239437 13.4389831 6.41408451 16.840678 6.41408451 16.840678 4.52394366 13.4389831 4.52394366 13.4389831 1.95211268"></polygon>
            </g>
        </g>
    </g>
</svg>