<?xml version="1.0" encoding="UTF-8"?>
<svg width="305px" height="237px" viewBox="0 0 305 237" version="1.1" xmlns="http://www.w3.org/2000/svg" xmlns:xlink="http://www.w3.org/1999/xlink">
    <title>PF-Logo</title>
    <g id="PF-Logo" stroke="none" stroke-width="1" fill="none" fill-rule="evenodd">
        <g id="PrototypeFund-P-Logo" transform="translate(109.274350, 45.000000)" fill-rule="nonzero">
            <g id="Group" transform="translate(0.725650, 115.000000)" fill="#1D1D1B">
                <g>
                    <path d="M0.0656370656,0.163194444 L3.90540541,0.163194444 C6.92471042,0.163194444 9.48455598,1.66458333 9.48455598,4.63472222 C9.48455598,7.80069444 6.76061776,9.23680556 3.70849421,9.23680556 L2.13320463,9.23680556 L2.13320463,14.7854167 L0.0984555985,14.7854167 L0.0656370656,0.163194444 Z M2.1003861,7.53958333 L3.70849421,7.50694444 C5.05405405,7.50694444 7.35135135,7.01736111 7.35135135,4.63472222 C7.35135135,2.35 5.11969112,1.82777778 3.93822394,1.82777778 L2.1003861,1.79513889 L2.1003861,7.53958333 Z" id="Shape"></path>
                    <path d="M11.027027,7.27847222 C11.027027,6.36458333 10.9942085,5.48333333 10.8957529,4.63472222 L12.7335907,4.63472222 L12.8320463,7.27847222 L12.9633205,7.27847222 C13.3243243,5.97291667 14.4401544,4.47152778 15.9498069,4.47152778 C16.507722,4.47152778 16.9343629,4.60208333 17.2625483,4.76527778 L17.2625483,6.49513889 C16.9671815,6.36458333 16.5405405,6.23402778 16.1138996,6.23402778 C14.1776062,6.23402778 13.0945946,8.12708333 12.9633205,10.28125 L12.9633205,14.7854167 L11.027027,14.7854167 L11.027027,7.27847222 Z" id="Path"></path>
                    <path d="M22.972973,4.34097222 C26.484556,4.34097222 27.9942085,7.40902778 27.9942085,9.69375 C27.9942085,12.4027778 26.2220077,15.1118056 22.972973,15.1118056 C19.7239382,15.1118056 17.8532819,12.5333333 17.8532819,9.69375 C17.8532819,7.34375 19.4285714,4.34097222 22.972973,4.34097222 Z M22.9401544,13.6756944 C24.515444,13.6756944 25.992278,12.4354167 25.992278,9.66111111 C25.992278,7.08263889 24.5810811,5.77708333 22.9401544,5.77708333 C21.6274131,5.77708333 19.8552124,6.62569444 19.8552124,9.69375 C19.8552124,11.7826389 20.8069498,13.6756944 22.9401544,13.6756944 Z" id="Shape"></path>
                    <path d="M28.8803089,4.60208333 L30.5540541,4.60208333 L30.9150579,1.56666667 L32.4247104,1.56666667 L32.4247104,4.60208333 L35.3127413,4.60208333 L35.3127413,6.07083333 L32.4247104,6.07083333 L32.4247104,11.8152778 C32.4247104,12.7291667 32.8841699,13.2840278 33.8359073,13.2840278 C34.3938224,13.2840278 35.0501931,13.0881944 35.3127413,12.9902778 L35.3127413,14.4916667 C34.9517375,14.7201389 34.2953668,15.0138889 33.6061776,15.0138889 C31.6370656,15.0138889 30.5212355,13.8388889 30.5212355,11.8805556 L30.5212355,6.13611111 L28.8803089,6.13611111 L28.8803089,4.60208333 Z" id="Path"></path>
                    <path d="M41.4498069,4.34097222 C44.96139,4.34097222 46.4710425,7.40902778 46.4710425,9.69375 C46.4710425,12.4027778 44.6988417,15.1118056 41.4498069,15.1118056 C38.2007722,15.1118056 36.3301158,12.5333333 36.3301158,9.69375 C36.3301158,7.34375 37.9382239,4.34097222 41.4498069,4.34097222 Z M41.4169884,13.6756944 C42.992278,13.6756944 44.469112,12.4354167 44.469112,9.66111111 C44.469112,7.08263889 43.0579151,5.77708333 41.4169884,5.77708333 C40.1042471,5.77708333 38.3320463,6.62569444 38.3320463,9.69375 C38.3320463,11.7826389 39.2837838,13.6756944 41.4169884,13.6756944 Z" id="Shape"></path>
                    <path d="M47.3899614,4.60208333 L49.0637066,4.60208333 L49.4247104,1.56666667 L50.9343629,1.56666667 L50.9343629,4.60208333 L53.8223938,4.60208333 L53.8223938,6.07083333 L50.9343629,6.07083333 L50.9343629,11.8152778 C50.9343629,12.7291667 51.3938224,13.2840278 52.3455598,13.2840278 C52.9034749,13.2840278 53.5598456,13.0881944 53.8223938,12.9902778 L53.8223938,14.4916667 C53.46139,14.7201389 52.8050193,15.0138889 52.1158301,15.0138889 C50.1467181,15.0138889 49.030888,13.8388889 49.030888,11.8805556 L49.030888,6.13611111 L47.3899614,6.13611111 L47.3899614,4.60208333 Z" id="Path"></path>
                    <path d="M60.0579151,16.8090278 C59.4343629,18.3756944 58.4169884,18.8652778 57.1698842,18.8652778 C56.7432432,18.8652778 56.1853282,18.8 55.8243243,18.6694444 L55.8243243,17.0375 C56.1196911,17.1354167 56.6447876,17.2333333 56.9401544,17.2333333 C57.5965251,17.2333333 57.9903475,17.0048611 58.2857143,16.4173611 C58.4826255,15.9930556 58.8108108,15.1118056 58.9092664,14.7854167 C59.007722,14.3284722 58.7123552,14.0673611 58.3185328,14.1 L54.6428571,4.63472222 L56.7760618,4.63472222 L59.6312741,12.6965278 L59.7625483,12.6965278 L62.2567568,4.63472222 L64.2586873,4.63472222 C60.7799228,14.7854167 60.5173745,15.5361111 60.0579151,16.8090278 Z" id="Path"></path>
                    <path d="M67.4420849,18.6694444 L65.53861,18.6694444 L65.53861,6.10347222 C65.53861,5.67916667 65.5057915,4.99375 65.5057915,4.60208333 L67.3108108,4.60208333 C67.3436293,4.99375 67.3436293,5.74444444 67.3436293,6.13611111 L67.4749035,6.13611111 C68.1640927,5.09166667 69.1486486,4.43888889 70.4942085,4.43888889 C73.3166023,4.43888889 74.8590734,6.91944444 74.8590734,9.75902778 C74.8590734,12.6965278 73.2837838,15.0791667 70.5926641,15.0791667 C68.7548263,15.0791667 67.8687259,13.8715278 67.5733591,13.4472222 L67.4420849,13.4472222 C67.4420849,13.4472222 67.4749035,14.1652778 67.4749035,14.8180556 L67.4420849,18.6694444 Z M70.034749,5.90763889 C68.6235521,5.90763889 67.5405405,7.37638889 67.4420849,8.45347222 L67.4420849,10.9013889 C67.4749035,12.0111111 68.492278,13.6104167 70.1003861,13.6104167 C71.9710425,13.6104167 72.8243243,11.8479167 72.8243243,9.75902778 C72.8243243,7.44166667 71.9054054,5.90763889 70.034749,5.90763889 Z" id="Shape"></path>
                    <path d="M77.5501931,9.95486111 C77.5830116,12.0763889 78.6003861,13.6104167 80.5366795,13.6104167 C81.7837838,13.6104167 82.7355212,12.7944444 82.965251,11.6520833 L84.8359073,11.6520833 C84.6061776,13.3166667 83.0965251,15.0791667 80.4054054,15.0791667 C77.5501931,15.0791667 75.6138996,12.925 75.6138996,9.59583333 C75.6138996,6.75625 77.4189189,4.34097222 80.2741313,4.34097222 C84.015444,4.34097222 85.0656371,7.57222222 84.8030888,9.95486111 L77.5501931,9.95486111 L77.5501931,9.95486111 Z M82.9324324,8.55138889 C82.965251,7.57222222 82.4073359,5.74444444 80.3397683,5.74444444 C78.96139,5.74444444 77.7799228,6.72361111 77.6158301,8.58402778 L82.9324324,8.55138889 Z" id="Shape"></path>
                </g>
                <g transform="translate(0.000000, 19.256944)">
                    <polygon id="Path" points="0.0656370656 0 8.27027027 0 8.27027027 1.72986111 2.16602317 1.72986111 2.16602317 6.56041667 7.94208494 6.56041667 7.94208494 8.25763889 2.16602317 8.25763889 2.16602317 14.6222222 0.0984555985 14.6222222"></polygon>
                    <path d="M18.6081081,4.47152778 L18.6081081,12.8923611 C18.6081081,13.4145833 18.6409266,14.1 18.7393822,14.6222222 L16.7702703,14.6222222 C16.7374517,14.1979167 16.7374517,13.4472222 16.7374517,12.8597222 L16.6061776,12.8597222 C16.3764479,13.2840278 15.3590734,14.7527778 13.2915058,14.7527778 C11.9131274,14.7527778 9.81274131,14.0020833 9.81274131,10.9340278 L9.81274131,4.43888889 L11.7818533,4.43888889 L11.7818533,10.9340278 C11.7818533,12.2722222 12.4054054,13.1861111 13.7181467,13.1861111 C15.0965251,13.1861111 16.3108108,11.9784722 16.6389961,10.2159722 L16.6389961,4.43888889 L18.6081081,4.43888889 L18.6081081,4.47152778 Z" id="Path"></path>
                    <path d="M20.511583,6.20138889 C20.511583,5.67916667 20.4787645,5.05902778 20.4131274,4.47152778 L22.3822394,4.47152778 L22.3822394,6.20138889 L22.5135135,6.20138889 C22.7760618,5.74444444 23.8918919,4.24305556 25.8281853,4.24305556 C27.042471,4.24305556 29.2084942,4.89583333 29.2084942,7.99652778 L29.2084942,14.6222222 L27.2393822,14.6222222 L27.2393822,7.96388889 C27.2393822,6.56041667 26.6158301,5.74444444 25.4343629,5.74444444 C24.023166,5.74444444 22.8416988,7.05 22.4478764,8.71458333 L22.4478764,14.6222222 L20.511583,14.6222222 L20.511583,6.20138889 Z" id="Path"></path>
                    <path d="M37.7741313,0 L39.6776062,0 L39.6776062,13.1208333 C39.6776062,13.5451389 39.6776062,14.2305556 39.7104247,14.6222222 L37.9710425,14.6222222 C37.9382239,14.1979167 37.9382239,13.5777778 37.9382239,13.1208333 L37.8069498,13.1208333 C37.1177606,14.1652778 36.1003861,14.7854167 34.7876448,14.7854167 C31.9324324,14.7854167 30.3571429,12.3048611 30.3571429,9.46527778 C30.3571429,6.52777778 31.9324324,4.14513889 34.6235521,4.14513889 C36.46139,4.14513889 37.3474903,5.35277778 37.6428571,5.77708333 L37.7741313,5.77708333 C37.7741313,5.77708333 37.7413127,5.09166667 37.7413127,4.40625 L37.7741313,0 Z M35.2142857,13.3493056 C36.6254826,13.3493056 37.7084942,11.8805556 37.7741313,10.8361111 L37.7741313,8.35555556 C37.7413127,7.24583333 36.7239382,5.64652778 35.1158301,5.64652778 C33.2451737,5.64652778 32.3918919,7.40902778 32.3918919,9.49791667 C32.4247104,11.8152778 33.3436293,13.3493056 35.2142857,13.3493056 Z" id="Shape"></path>
                </g>
            </g>
            <path d="M57.4753589,0.0330679731 L69.9596429,1.62033068 L84.7256499,30.3894672 L69.9596429,54.5621555 C69.9596429,54.5621555 53.1074892,59.0263319 46.653473,60.6135946 L31.952658,60.6135946 L31.952658,99.5676669 L43.8502133,103.833435 L43.556849,108 L22.4020178,107.702388 L1.18199449,108 L0.7256499,103.833435 L12.7209933,99.5676669 L12.7209933,8.36619718 L0.7256499,4.16656461 L1.18199449,0 L57.4753589,0.0330679731 Z M31.952658,52.3135334 L44.2413658,54.6944274 L63.2122622,41.2688304 L69.0795498,30.3894672 L63.2122622,19.4439682 L44.2413658,6.7458665 L31.952658,8.39926516 L31.952658,52.3135334 Z" id="XMLID_19_" fill="#009ACE"></path>
        </g>
    </g>
</svg>